G04 #@! TF.GenerationSoftware,KiCad,Pcbnew,5.0.2+dfsg1-1*
G04 #@! TF.CreationDate,2021-01-06T22:48:14+01:00*
G04 #@! TF.ProjectId,esp_12e_proto_board,6573705f-3132-4655-9f70-726f746f5f62,B*
G04 #@! TF.SameCoordinates,Original*
G04 #@! TF.FileFunction,Soldermask,Bot*
G04 #@! TF.FilePolarity,Negative*
%FSLAX46Y46*%
G04 Gerber Fmt 4.6, Leading zero omitted, Abs format (unit mm)*
G04 Created by KiCad (PCBNEW 5.0.2+dfsg1-1) date Wed 06 Jan 2021 10:48:14 PM CET*
%MOMM*%
%LPD*%
G01*
G04 APERTURE LIST*
%ADD10C,0.100000*%
G04 APERTURE END LIST*
D10*
G36*
X171560442Y-107055518D02*
X171626627Y-107062037D01*
X171739853Y-107096384D01*
X171796467Y-107113557D01*
X171935087Y-107187652D01*
X171952991Y-107197222D01*
X171988729Y-107226552D01*
X172090186Y-107309814D01*
X172173448Y-107411271D01*
X172202778Y-107447009D01*
X172202779Y-107447011D01*
X172286443Y-107603533D01*
X172286443Y-107603534D01*
X172337963Y-107773373D01*
X172355359Y-107950000D01*
X172337963Y-108126627D01*
X172303616Y-108239853D01*
X172286443Y-108296467D01*
X172212348Y-108435087D01*
X172202778Y-108452991D01*
X172173448Y-108488729D01*
X172090186Y-108590186D01*
X171988729Y-108673448D01*
X171952991Y-108702778D01*
X171952989Y-108702779D01*
X171796467Y-108786443D01*
X171739853Y-108803616D01*
X171626627Y-108837963D01*
X171560442Y-108844482D01*
X171494260Y-108851000D01*
X171405740Y-108851000D01*
X171339558Y-108844482D01*
X171273373Y-108837963D01*
X171160147Y-108803616D01*
X171103533Y-108786443D01*
X170947011Y-108702779D01*
X170947009Y-108702778D01*
X170911271Y-108673448D01*
X170809814Y-108590186D01*
X170726552Y-108488729D01*
X170697222Y-108452991D01*
X170687652Y-108435087D01*
X170613557Y-108296467D01*
X170596384Y-108239853D01*
X170562037Y-108126627D01*
X170544641Y-107950000D01*
X170562037Y-107773373D01*
X170613557Y-107603534D01*
X170613557Y-107603533D01*
X170697221Y-107447011D01*
X170697222Y-107447009D01*
X170726552Y-107411271D01*
X170809814Y-107309814D01*
X170911271Y-107226552D01*
X170947009Y-107197222D01*
X170964913Y-107187652D01*
X171103533Y-107113557D01*
X171160147Y-107096384D01*
X171273373Y-107062037D01*
X171339558Y-107055518D01*
X171405740Y-107049000D01*
X171494260Y-107049000D01*
X171560442Y-107055518D01*
X171560442Y-107055518D01*
G37*
G36*
X166480442Y-107055518D02*
X166546627Y-107062037D01*
X166659853Y-107096384D01*
X166716467Y-107113557D01*
X166855087Y-107187652D01*
X166872991Y-107197222D01*
X166908729Y-107226552D01*
X167010186Y-107309814D01*
X167093448Y-107411271D01*
X167122778Y-107447009D01*
X167122779Y-107447011D01*
X167206443Y-107603533D01*
X167206443Y-107603534D01*
X167257963Y-107773373D01*
X167275359Y-107950000D01*
X167257963Y-108126627D01*
X167223616Y-108239853D01*
X167206443Y-108296467D01*
X167132348Y-108435087D01*
X167122778Y-108452991D01*
X167093448Y-108488729D01*
X167010186Y-108590186D01*
X166908729Y-108673448D01*
X166872991Y-108702778D01*
X166872989Y-108702779D01*
X166716467Y-108786443D01*
X166659853Y-108803616D01*
X166546627Y-108837963D01*
X166480442Y-108844482D01*
X166414260Y-108851000D01*
X166325740Y-108851000D01*
X166259558Y-108844482D01*
X166193373Y-108837963D01*
X166080147Y-108803616D01*
X166023533Y-108786443D01*
X165867011Y-108702779D01*
X165867009Y-108702778D01*
X165831271Y-108673448D01*
X165729814Y-108590186D01*
X165646552Y-108488729D01*
X165617222Y-108452991D01*
X165607652Y-108435087D01*
X165533557Y-108296467D01*
X165516384Y-108239853D01*
X165482037Y-108126627D01*
X165464641Y-107950000D01*
X165482037Y-107773373D01*
X165533557Y-107603534D01*
X165533557Y-107603533D01*
X165617221Y-107447011D01*
X165617222Y-107447009D01*
X165646552Y-107411271D01*
X165729814Y-107309814D01*
X165831271Y-107226552D01*
X165867009Y-107197222D01*
X165884913Y-107187652D01*
X166023533Y-107113557D01*
X166080147Y-107096384D01*
X166193373Y-107062037D01*
X166259558Y-107055518D01*
X166325740Y-107049000D01*
X166414260Y-107049000D01*
X166480442Y-107055518D01*
X166480442Y-107055518D01*
G37*
G36*
X163940442Y-107055518D02*
X164006627Y-107062037D01*
X164119853Y-107096384D01*
X164176467Y-107113557D01*
X164315087Y-107187652D01*
X164332991Y-107197222D01*
X164368729Y-107226552D01*
X164470186Y-107309814D01*
X164553448Y-107411271D01*
X164582778Y-107447009D01*
X164582779Y-107447011D01*
X164666443Y-107603533D01*
X164666443Y-107603534D01*
X164717963Y-107773373D01*
X164735359Y-107950000D01*
X164717963Y-108126627D01*
X164683616Y-108239853D01*
X164666443Y-108296467D01*
X164592348Y-108435087D01*
X164582778Y-108452991D01*
X164553448Y-108488729D01*
X164470186Y-108590186D01*
X164368729Y-108673448D01*
X164332991Y-108702778D01*
X164332989Y-108702779D01*
X164176467Y-108786443D01*
X164119853Y-108803616D01*
X164006627Y-108837963D01*
X163940442Y-108844482D01*
X163874260Y-108851000D01*
X163785740Y-108851000D01*
X163719558Y-108844482D01*
X163653373Y-108837963D01*
X163540147Y-108803616D01*
X163483533Y-108786443D01*
X163327011Y-108702779D01*
X163327009Y-108702778D01*
X163291271Y-108673448D01*
X163189814Y-108590186D01*
X163106552Y-108488729D01*
X163077222Y-108452991D01*
X163067652Y-108435087D01*
X162993557Y-108296467D01*
X162976384Y-108239853D01*
X162942037Y-108126627D01*
X162924641Y-107950000D01*
X162942037Y-107773373D01*
X162993557Y-107603534D01*
X162993557Y-107603533D01*
X163077221Y-107447011D01*
X163077222Y-107447009D01*
X163106552Y-107411271D01*
X163189814Y-107309814D01*
X163291271Y-107226552D01*
X163327009Y-107197222D01*
X163344913Y-107187652D01*
X163483533Y-107113557D01*
X163540147Y-107096384D01*
X163653373Y-107062037D01*
X163719558Y-107055518D01*
X163785740Y-107049000D01*
X163874260Y-107049000D01*
X163940442Y-107055518D01*
X163940442Y-107055518D01*
G37*
G36*
X161400442Y-107055518D02*
X161466627Y-107062037D01*
X161579853Y-107096384D01*
X161636467Y-107113557D01*
X161775087Y-107187652D01*
X161792991Y-107197222D01*
X161828729Y-107226552D01*
X161930186Y-107309814D01*
X162013448Y-107411271D01*
X162042778Y-107447009D01*
X162042779Y-107447011D01*
X162126443Y-107603533D01*
X162126443Y-107603534D01*
X162177963Y-107773373D01*
X162195359Y-107950000D01*
X162177963Y-108126627D01*
X162143616Y-108239853D01*
X162126443Y-108296467D01*
X162052348Y-108435087D01*
X162042778Y-108452991D01*
X162013448Y-108488729D01*
X161930186Y-108590186D01*
X161828729Y-108673448D01*
X161792991Y-108702778D01*
X161792989Y-108702779D01*
X161636467Y-108786443D01*
X161579853Y-108803616D01*
X161466627Y-108837963D01*
X161400442Y-108844482D01*
X161334260Y-108851000D01*
X161245740Y-108851000D01*
X161179558Y-108844482D01*
X161113373Y-108837963D01*
X161000147Y-108803616D01*
X160943533Y-108786443D01*
X160787011Y-108702779D01*
X160787009Y-108702778D01*
X160751271Y-108673448D01*
X160649814Y-108590186D01*
X160566552Y-108488729D01*
X160537222Y-108452991D01*
X160527652Y-108435087D01*
X160453557Y-108296467D01*
X160436384Y-108239853D01*
X160402037Y-108126627D01*
X160384641Y-107950000D01*
X160402037Y-107773373D01*
X160453557Y-107603534D01*
X160453557Y-107603533D01*
X160537221Y-107447011D01*
X160537222Y-107447009D01*
X160566552Y-107411271D01*
X160649814Y-107309814D01*
X160751271Y-107226552D01*
X160787009Y-107197222D01*
X160804913Y-107187652D01*
X160943533Y-107113557D01*
X161000147Y-107096384D01*
X161113373Y-107062037D01*
X161179558Y-107055518D01*
X161245740Y-107049000D01*
X161334260Y-107049000D01*
X161400442Y-107055518D01*
X161400442Y-107055518D01*
G37*
G36*
X158860442Y-107055518D02*
X158926627Y-107062037D01*
X159039853Y-107096384D01*
X159096467Y-107113557D01*
X159235087Y-107187652D01*
X159252991Y-107197222D01*
X159288729Y-107226552D01*
X159390186Y-107309814D01*
X159473448Y-107411271D01*
X159502778Y-107447009D01*
X159502779Y-107447011D01*
X159586443Y-107603533D01*
X159586443Y-107603534D01*
X159637963Y-107773373D01*
X159655359Y-107950000D01*
X159637963Y-108126627D01*
X159603616Y-108239853D01*
X159586443Y-108296467D01*
X159512348Y-108435087D01*
X159502778Y-108452991D01*
X159473448Y-108488729D01*
X159390186Y-108590186D01*
X159288729Y-108673448D01*
X159252991Y-108702778D01*
X159252989Y-108702779D01*
X159096467Y-108786443D01*
X159039853Y-108803616D01*
X158926627Y-108837963D01*
X158860442Y-108844482D01*
X158794260Y-108851000D01*
X158705740Y-108851000D01*
X158639558Y-108844482D01*
X158573373Y-108837963D01*
X158460147Y-108803616D01*
X158403533Y-108786443D01*
X158247011Y-108702779D01*
X158247009Y-108702778D01*
X158211271Y-108673448D01*
X158109814Y-108590186D01*
X158026552Y-108488729D01*
X157997222Y-108452991D01*
X157987652Y-108435087D01*
X157913557Y-108296467D01*
X157896384Y-108239853D01*
X157862037Y-108126627D01*
X157844641Y-107950000D01*
X157862037Y-107773373D01*
X157913557Y-107603534D01*
X157913557Y-107603533D01*
X157997221Y-107447011D01*
X157997222Y-107447009D01*
X158026552Y-107411271D01*
X158109814Y-107309814D01*
X158211271Y-107226552D01*
X158247009Y-107197222D01*
X158264913Y-107187652D01*
X158403533Y-107113557D01*
X158460147Y-107096384D01*
X158573373Y-107062037D01*
X158639558Y-107055518D01*
X158705740Y-107049000D01*
X158794260Y-107049000D01*
X158860442Y-107055518D01*
X158860442Y-107055518D01*
G37*
G36*
X156320442Y-107055518D02*
X156386627Y-107062037D01*
X156499853Y-107096384D01*
X156556467Y-107113557D01*
X156695087Y-107187652D01*
X156712991Y-107197222D01*
X156748729Y-107226552D01*
X156850186Y-107309814D01*
X156933448Y-107411271D01*
X156962778Y-107447009D01*
X156962779Y-107447011D01*
X157046443Y-107603533D01*
X157046443Y-107603534D01*
X157097963Y-107773373D01*
X157115359Y-107950000D01*
X157097963Y-108126627D01*
X157063616Y-108239853D01*
X157046443Y-108296467D01*
X156972348Y-108435087D01*
X156962778Y-108452991D01*
X156933448Y-108488729D01*
X156850186Y-108590186D01*
X156748729Y-108673448D01*
X156712991Y-108702778D01*
X156712989Y-108702779D01*
X156556467Y-108786443D01*
X156499853Y-108803616D01*
X156386627Y-108837963D01*
X156320442Y-108844482D01*
X156254260Y-108851000D01*
X156165740Y-108851000D01*
X156099558Y-108844482D01*
X156033373Y-108837963D01*
X155920147Y-108803616D01*
X155863533Y-108786443D01*
X155707011Y-108702779D01*
X155707009Y-108702778D01*
X155671271Y-108673448D01*
X155569814Y-108590186D01*
X155486552Y-108488729D01*
X155457222Y-108452991D01*
X155447652Y-108435087D01*
X155373557Y-108296467D01*
X155356384Y-108239853D01*
X155322037Y-108126627D01*
X155304641Y-107950000D01*
X155322037Y-107773373D01*
X155373557Y-107603534D01*
X155373557Y-107603533D01*
X155457221Y-107447011D01*
X155457222Y-107447009D01*
X155486552Y-107411271D01*
X155569814Y-107309814D01*
X155671271Y-107226552D01*
X155707009Y-107197222D01*
X155724913Y-107187652D01*
X155863533Y-107113557D01*
X155920147Y-107096384D01*
X156033373Y-107062037D01*
X156099558Y-107055518D01*
X156165740Y-107049000D01*
X156254260Y-107049000D01*
X156320442Y-107055518D01*
X156320442Y-107055518D01*
G37*
G36*
X153780442Y-107055518D02*
X153846627Y-107062037D01*
X153959853Y-107096384D01*
X154016467Y-107113557D01*
X154155087Y-107187652D01*
X154172991Y-107197222D01*
X154208729Y-107226552D01*
X154310186Y-107309814D01*
X154393448Y-107411271D01*
X154422778Y-107447009D01*
X154422779Y-107447011D01*
X154506443Y-107603533D01*
X154506443Y-107603534D01*
X154557963Y-107773373D01*
X154575359Y-107950000D01*
X154557963Y-108126627D01*
X154523616Y-108239853D01*
X154506443Y-108296467D01*
X154432348Y-108435087D01*
X154422778Y-108452991D01*
X154393448Y-108488729D01*
X154310186Y-108590186D01*
X154208729Y-108673448D01*
X154172991Y-108702778D01*
X154172989Y-108702779D01*
X154016467Y-108786443D01*
X153959853Y-108803616D01*
X153846627Y-108837963D01*
X153780442Y-108844482D01*
X153714260Y-108851000D01*
X153625740Y-108851000D01*
X153559558Y-108844482D01*
X153493373Y-108837963D01*
X153380147Y-108803616D01*
X153323533Y-108786443D01*
X153167011Y-108702779D01*
X153167009Y-108702778D01*
X153131271Y-108673448D01*
X153029814Y-108590186D01*
X152946552Y-108488729D01*
X152917222Y-108452991D01*
X152907652Y-108435087D01*
X152833557Y-108296467D01*
X152816384Y-108239853D01*
X152782037Y-108126627D01*
X152764641Y-107950000D01*
X152782037Y-107773373D01*
X152833557Y-107603534D01*
X152833557Y-107603533D01*
X152917221Y-107447011D01*
X152917222Y-107447009D01*
X152946552Y-107411271D01*
X153029814Y-107309814D01*
X153131271Y-107226552D01*
X153167009Y-107197222D01*
X153184913Y-107187652D01*
X153323533Y-107113557D01*
X153380147Y-107096384D01*
X153493373Y-107062037D01*
X153559558Y-107055518D01*
X153625740Y-107049000D01*
X153714260Y-107049000D01*
X153780442Y-107055518D01*
X153780442Y-107055518D01*
G37*
G36*
X151240442Y-107055518D02*
X151306627Y-107062037D01*
X151419853Y-107096384D01*
X151476467Y-107113557D01*
X151615087Y-107187652D01*
X151632991Y-107197222D01*
X151668729Y-107226552D01*
X151770186Y-107309814D01*
X151853448Y-107411271D01*
X151882778Y-107447009D01*
X151882779Y-107447011D01*
X151966443Y-107603533D01*
X151966443Y-107603534D01*
X152017963Y-107773373D01*
X152035359Y-107950000D01*
X152017963Y-108126627D01*
X151983616Y-108239853D01*
X151966443Y-108296467D01*
X151892348Y-108435087D01*
X151882778Y-108452991D01*
X151853448Y-108488729D01*
X151770186Y-108590186D01*
X151668729Y-108673448D01*
X151632991Y-108702778D01*
X151632989Y-108702779D01*
X151476467Y-108786443D01*
X151419853Y-108803616D01*
X151306627Y-108837963D01*
X151240442Y-108844482D01*
X151174260Y-108851000D01*
X151085740Y-108851000D01*
X151019558Y-108844482D01*
X150953373Y-108837963D01*
X150840147Y-108803616D01*
X150783533Y-108786443D01*
X150627011Y-108702779D01*
X150627009Y-108702778D01*
X150591271Y-108673448D01*
X150489814Y-108590186D01*
X150406552Y-108488729D01*
X150377222Y-108452991D01*
X150367652Y-108435087D01*
X150293557Y-108296467D01*
X150276384Y-108239853D01*
X150242037Y-108126627D01*
X150224641Y-107950000D01*
X150242037Y-107773373D01*
X150293557Y-107603534D01*
X150293557Y-107603533D01*
X150377221Y-107447011D01*
X150377222Y-107447009D01*
X150406552Y-107411271D01*
X150489814Y-107309814D01*
X150591271Y-107226552D01*
X150627009Y-107197222D01*
X150644913Y-107187652D01*
X150783533Y-107113557D01*
X150840147Y-107096384D01*
X150953373Y-107062037D01*
X151019558Y-107055518D01*
X151085740Y-107049000D01*
X151174260Y-107049000D01*
X151240442Y-107055518D01*
X151240442Y-107055518D01*
G37*
G36*
X148700442Y-107055518D02*
X148766627Y-107062037D01*
X148879853Y-107096384D01*
X148936467Y-107113557D01*
X149075087Y-107187652D01*
X149092991Y-107197222D01*
X149128729Y-107226552D01*
X149230186Y-107309814D01*
X149313448Y-107411271D01*
X149342778Y-107447009D01*
X149342779Y-107447011D01*
X149426443Y-107603533D01*
X149426443Y-107603534D01*
X149477963Y-107773373D01*
X149495359Y-107950000D01*
X149477963Y-108126627D01*
X149443616Y-108239853D01*
X149426443Y-108296467D01*
X149352348Y-108435087D01*
X149342778Y-108452991D01*
X149313448Y-108488729D01*
X149230186Y-108590186D01*
X149128729Y-108673448D01*
X149092991Y-108702778D01*
X149092989Y-108702779D01*
X148936467Y-108786443D01*
X148879853Y-108803616D01*
X148766627Y-108837963D01*
X148700442Y-108844482D01*
X148634260Y-108851000D01*
X148545740Y-108851000D01*
X148479558Y-108844482D01*
X148413373Y-108837963D01*
X148300147Y-108803616D01*
X148243533Y-108786443D01*
X148087011Y-108702779D01*
X148087009Y-108702778D01*
X148051271Y-108673448D01*
X147949814Y-108590186D01*
X147866552Y-108488729D01*
X147837222Y-108452991D01*
X147827652Y-108435087D01*
X147753557Y-108296467D01*
X147736384Y-108239853D01*
X147702037Y-108126627D01*
X147684641Y-107950000D01*
X147702037Y-107773373D01*
X147753557Y-107603534D01*
X147753557Y-107603533D01*
X147837221Y-107447011D01*
X147837222Y-107447009D01*
X147866552Y-107411271D01*
X147949814Y-107309814D01*
X148051271Y-107226552D01*
X148087009Y-107197222D01*
X148104913Y-107187652D01*
X148243533Y-107113557D01*
X148300147Y-107096384D01*
X148413373Y-107062037D01*
X148479558Y-107055518D01*
X148545740Y-107049000D01*
X148634260Y-107049000D01*
X148700442Y-107055518D01*
X148700442Y-107055518D01*
G37*
G36*
X146951000Y-108851000D02*
X145149000Y-108851000D01*
X145149000Y-107049000D01*
X146951000Y-107049000D01*
X146951000Y-108851000D01*
X146951000Y-108851000D01*
G37*
G36*
X169020442Y-107055518D02*
X169086627Y-107062037D01*
X169199853Y-107096384D01*
X169256467Y-107113557D01*
X169395087Y-107187652D01*
X169412991Y-107197222D01*
X169448729Y-107226552D01*
X169550186Y-107309814D01*
X169633448Y-107411271D01*
X169662778Y-107447009D01*
X169662779Y-107447011D01*
X169746443Y-107603533D01*
X169746443Y-107603534D01*
X169797963Y-107773373D01*
X169815359Y-107950000D01*
X169797963Y-108126627D01*
X169763616Y-108239853D01*
X169746443Y-108296467D01*
X169672348Y-108435087D01*
X169662778Y-108452991D01*
X169633448Y-108488729D01*
X169550186Y-108590186D01*
X169448729Y-108673448D01*
X169412991Y-108702778D01*
X169412989Y-108702779D01*
X169256467Y-108786443D01*
X169199853Y-108803616D01*
X169086627Y-108837963D01*
X169020442Y-108844482D01*
X168954260Y-108851000D01*
X168865740Y-108851000D01*
X168799558Y-108844482D01*
X168733373Y-108837963D01*
X168620147Y-108803616D01*
X168563533Y-108786443D01*
X168407011Y-108702779D01*
X168407009Y-108702778D01*
X168371271Y-108673448D01*
X168269814Y-108590186D01*
X168186552Y-108488729D01*
X168157222Y-108452991D01*
X168147652Y-108435087D01*
X168073557Y-108296467D01*
X168056384Y-108239853D01*
X168022037Y-108126627D01*
X168004641Y-107950000D01*
X168022037Y-107773373D01*
X168073557Y-107603534D01*
X168073557Y-107603533D01*
X168157221Y-107447011D01*
X168157222Y-107447009D01*
X168186552Y-107411271D01*
X168269814Y-107309814D01*
X168371271Y-107226552D01*
X168407009Y-107197222D01*
X168424913Y-107187652D01*
X168563533Y-107113557D01*
X168620147Y-107096384D01*
X168733373Y-107062037D01*
X168799558Y-107055518D01*
X168865740Y-107049000D01*
X168954260Y-107049000D01*
X169020442Y-107055518D01*
X169020442Y-107055518D01*
G37*
G36*
X166480443Y-99435519D02*
X166546627Y-99442037D01*
X166659853Y-99476384D01*
X166716467Y-99493557D01*
X166855087Y-99567652D01*
X166872991Y-99577222D01*
X166908729Y-99606552D01*
X167010186Y-99689814D01*
X167093448Y-99791271D01*
X167122778Y-99827009D01*
X167122779Y-99827011D01*
X167206443Y-99983533D01*
X167206443Y-99983534D01*
X167257963Y-100153373D01*
X167275359Y-100330000D01*
X167257963Y-100506627D01*
X167223616Y-100619853D01*
X167206443Y-100676467D01*
X167132348Y-100815087D01*
X167122778Y-100832991D01*
X167093448Y-100868729D01*
X167010186Y-100970186D01*
X166908729Y-101053448D01*
X166872991Y-101082778D01*
X166872989Y-101082779D01*
X166716467Y-101166443D01*
X166659853Y-101183616D01*
X166546627Y-101217963D01*
X166480443Y-101224481D01*
X166414260Y-101231000D01*
X166325740Y-101231000D01*
X166259558Y-101224482D01*
X166193373Y-101217963D01*
X166080147Y-101183616D01*
X166023533Y-101166443D01*
X165867011Y-101082779D01*
X165867009Y-101082778D01*
X165831271Y-101053448D01*
X165729814Y-100970186D01*
X165646552Y-100868729D01*
X165617222Y-100832991D01*
X165607652Y-100815087D01*
X165533557Y-100676467D01*
X165516384Y-100619853D01*
X165482037Y-100506627D01*
X165464641Y-100330000D01*
X165482037Y-100153373D01*
X165533557Y-99983534D01*
X165533557Y-99983533D01*
X165617221Y-99827011D01*
X165617222Y-99827009D01*
X165646552Y-99791271D01*
X165729814Y-99689814D01*
X165831271Y-99606552D01*
X165867009Y-99577222D01*
X165884913Y-99567652D01*
X166023533Y-99493557D01*
X166080147Y-99476384D01*
X166193373Y-99442037D01*
X166259558Y-99435518D01*
X166325740Y-99429000D01*
X166414260Y-99429000D01*
X166480443Y-99435519D01*
X166480443Y-99435519D01*
G37*
G36*
X163940443Y-99435519D02*
X164006627Y-99442037D01*
X164119853Y-99476384D01*
X164176467Y-99493557D01*
X164315087Y-99567652D01*
X164332991Y-99577222D01*
X164368729Y-99606552D01*
X164470186Y-99689814D01*
X164553448Y-99791271D01*
X164582778Y-99827009D01*
X164582779Y-99827011D01*
X164666443Y-99983533D01*
X164666443Y-99983534D01*
X164717963Y-100153373D01*
X164735359Y-100330000D01*
X164717963Y-100506627D01*
X164683616Y-100619853D01*
X164666443Y-100676467D01*
X164592348Y-100815087D01*
X164582778Y-100832991D01*
X164553448Y-100868729D01*
X164470186Y-100970186D01*
X164368729Y-101053448D01*
X164332991Y-101082778D01*
X164332989Y-101082779D01*
X164176467Y-101166443D01*
X164119853Y-101183616D01*
X164006627Y-101217963D01*
X163940443Y-101224481D01*
X163874260Y-101231000D01*
X163785740Y-101231000D01*
X163719558Y-101224482D01*
X163653373Y-101217963D01*
X163540147Y-101183616D01*
X163483533Y-101166443D01*
X163327011Y-101082779D01*
X163327009Y-101082778D01*
X163291271Y-101053448D01*
X163189814Y-100970186D01*
X163106552Y-100868729D01*
X163077222Y-100832991D01*
X163067652Y-100815087D01*
X162993557Y-100676467D01*
X162976384Y-100619853D01*
X162942037Y-100506627D01*
X162924641Y-100330000D01*
X162942037Y-100153373D01*
X162993557Y-99983534D01*
X162993557Y-99983533D01*
X163077221Y-99827011D01*
X163077222Y-99827009D01*
X163106552Y-99791271D01*
X163189814Y-99689814D01*
X163291271Y-99606552D01*
X163327009Y-99577222D01*
X163344913Y-99567652D01*
X163483533Y-99493557D01*
X163540147Y-99476384D01*
X163653373Y-99442037D01*
X163719558Y-99435518D01*
X163785740Y-99429000D01*
X163874260Y-99429000D01*
X163940443Y-99435519D01*
X163940443Y-99435519D01*
G37*
G36*
X161400443Y-99435519D02*
X161466627Y-99442037D01*
X161579853Y-99476384D01*
X161636467Y-99493557D01*
X161775087Y-99567652D01*
X161792991Y-99577222D01*
X161828729Y-99606552D01*
X161930186Y-99689814D01*
X162013448Y-99791271D01*
X162042778Y-99827009D01*
X162042779Y-99827011D01*
X162126443Y-99983533D01*
X162126443Y-99983534D01*
X162177963Y-100153373D01*
X162195359Y-100330000D01*
X162177963Y-100506627D01*
X162143616Y-100619853D01*
X162126443Y-100676467D01*
X162052348Y-100815087D01*
X162042778Y-100832991D01*
X162013448Y-100868729D01*
X161930186Y-100970186D01*
X161828729Y-101053448D01*
X161792991Y-101082778D01*
X161792989Y-101082779D01*
X161636467Y-101166443D01*
X161579853Y-101183616D01*
X161466627Y-101217963D01*
X161400443Y-101224481D01*
X161334260Y-101231000D01*
X161245740Y-101231000D01*
X161179558Y-101224482D01*
X161113373Y-101217963D01*
X161000147Y-101183616D01*
X160943533Y-101166443D01*
X160787011Y-101082779D01*
X160787009Y-101082778D01*
X160751271Y-101053448D01*
X160649814Y-100970186D01*
X160566552Y-100868729D01*
X160537222Y-100832991D01*
X160527652Y-100815087D01*
X160453557Y-100676467D01*
X160436384Y-100619853D01*
X160402037Y-100506627D01*
X160384641Y-100330000D01*
X160402037Y-100153373D01*
X160453557Y-99983534D01*
X160453557Y-99983533D01*
X160537221Y-99827011D01*
X160537222Y-99827009D01*
X160566552Y-99791271D01*
X160649814Y-99689814D01*
X160751271Y-99606552D01*
X160787009Y-99577222D01*
X160804913Y-99567652D01*
X160943533Y-99493557D01*
X161000147Y-99476384D01*
X161113373Y-99442037D01*
X161179558Y-99435518D01*
X161245740Y-99429000D01*
X161334260Y-99429000D01*
X161400443Y-99435519D01*
X161400443Y-99435519D01*
G37*
G36*
X158860443Y-99435519D02*
X158926627Y-99442037D01*
X159039853Y-99476384D01*
X159096467Y-99493557D01*
X159235087Y-99567652D01*
X159252991Y-99577222D01*
X159288729Y-99606552D01*
X159390186Y-99689814D01*
X159473448Y-99791271D01*
X159502778Y-99827009D01*
X159502779Y-99827011D01*
X159586443Y-99983533D01*
X159586443Y-99983534D01*
X159637963Y-100153373D01*
X159655359Y-100330000D01*
X159637963Y-100506627D01*
X159603616Y-100619853D01*
X159586443Y-100676467D01*
X159512348Y-100815087D01*
X159502778Y-100832991D01*
X159473448Y-100868729D01*
X159390186Y-100970186D01*
X159288729Y-101053448D01*
X159252991Y-101082778D01*
X159252989Y-101082779D01*
X159096467Y-101166443D01*
X159039853Y-101183616D01*
X158926627Y-101217963D01*
X158860443Y-101224481D01*
X158794260Y-101231000D01*
X158705740Y-101231000D01*
X158639558Y-101224482D01*
X158573373Y-101217963D01*
X158460147Y-101183616D01*
X158403533Y-101166443D01*
X158247011Y-101082779D01*
X158247009Y-101082778D01*
X158211271Y-101053448D01*
X158109814Y-100970186D01*
X158026552Y-100868729D01*
X157997222Y-100832991D01*
X157987652Y-100815087D01*
X157913557Y-100676467D01*
X157896384Y-100619853D01*
X157862037Y-100506627D01*
X157844641Y-100330000D01*
X157862037Y-100153373D01*
X157913557Y-99983534D01*
X157913557Y-99983533D01*
X157997221Y-99827011D01*
X157997222Y-99827009D01*
X158026552Y-99791271D01*
X158109814Y-99689814D01*
X158211271Y-99606552D01*
X158247009Y-99577222D01*
X158264913Y-99567652D01*
X158403533Y-99493557D01*
X158460147Y-99476384D01*
X158573373Y-99442037D01*
X158639558Y-99435518D01*
X158705740Y-99429000D01*
X158794260Y-99429000D01*
X158860443Y-99435519D01*
X158860443Y-99435519D01*
G37*
G36*
X169020443Y-99435519D02*
X169086627Y-99442037D01*
X169199853Y-99476384D01*
X169256467Y-99493557D01*
X169395087Y-99567652D01*
X169412991Y-99577222D01*
X169448729Y-99606552D01*
X169550186Y-99689814D01*
X169633448Y-99791271D01*
X169662778Y-99827009D01*
X169662779Y-99827011D01*
X169746443Y-99983533D01*
X169746443Y-99983534D01*
X169797963Y-100153373D01*
X169815359Y-100330000D01*
X169797963Y-100506627D01*
X169763616Y-100619853D01*
X169746443Y-100676467D01*
X169672348Y-100815087D01*
X169662778Y-100832991D01*
X169633448Y-100868729D01*
X169550186Y-100970186D01*
X169448729Y-101053448D01*
X169412991Y-101082778D01*
X169412989Y-101082779D01*
X169256467Y-101166443D01*
X169199853Y-101183616D01*
X169086627Y-101217963D01*
X169020443Y-101224481D01*
X168954260Y-101231000D01*
X168865740Y-101231000D01*
X168799558Y-101224482D01*
X168733373Y-101217963D01*
X168620147Y-101183616D01*
X168563533Y-101166443D01*
X168407011Y-101082779D01*
X168407009Y-101082778D01*
X168371271Y-101053448D01*
X168269814Y-100970186D01*
X168186552Y-100868729D01*
X168157222Y-100832991D01*
X168147652Y-100815087D01*
X168073557Y-100676467D01*
X168056384Y-100619853D01*
X168022037Y-100506627D01*
X168004641Y-100330000D01*
X168022037Y-100153373D01*
X168073557Y-99983534D01*
X168073557Y-99983533D01*
X168157221Y-99827011D01*
X168157222Y-99827009D01*
X168186552Y-99791271D01*
X168269814Y-99689814D01*
X168371271Y-99606552D01*
X168407009Y-99577222D01*
X168424913Y-99567652D01*
X168563533Y-99493557D01*
X168620147Y-99476384D01*
X168733373Y-99442037D01*
X168799558Y-99435518D01*
X168865740Y-99429000D01*
X168954260Y-99429000D01*
X169020443Y-99435519D01*
X169020443Y-99435519D01*
G37*
G36*
X153780443Y-99435519D02*
X153846627Y-99442037D01*
X153959853Y-99476384D01*
X154016467Y-99493557D01*
X154155087Y-99567652D01*
X154172991Y-99577222D01*
X154208729Y-99606552D01*
X154310186Y-99689814D01*
X154393448Y-99791271D01*
X154422778Y-99827009D01*
X154422779Y-99827011D01*
X154506443Y-99983533D01*
X154506443Y-99983534D01*
X154557963Y-100153373D01*
X154575359Y-100330000D01*
X154557963Y-100506627D01*
X154523616Y-100619853D01*
X154506443Y-100676467D01*
X154432348Y-100815087D01*
X154422778Y-100832991D01*
X154393448Y-100868729D01*
X154310186Y-100970186D01*
X154208729Y-101053448D01*
X154172991Y-101082778D01*
X154172989Y-101082779D01*
X154016467Y-101166443D01*
X153959853Y-101183616D01*
X153846627Y-101217963D01*
X153780443Y-101224481D01*
X153714260Y-101231000D01*
X153625740Y-101231000D01*
X153559558Y-101224482D01*
X153493373Y-101217963D01*
X153380147Y-101183616D01*
X153323533Y-101166443D01*
X153167011Y-101082779D01*
X153167009Y-101082778D01*
X153131271Y-101053448D01*
X153029814Y-100970186D01*
X152946552Y-100868729D01*
X152917222Y-100832991D01*
X152907652Y-100815087D01*
X152833557Y-100676467D01*
X152816384Y-100619853D01*
X152782037Y-100506627D01*
X152764641Y-100330000D01*
X152782037Y-100153373D01*
X152833557Y-99983534D01*
X152833557Y-99983533D01*
X152917221Y-99827011D01*
X152917222Y-99827009D01*
X152946552Y-99791271D01*
X153029814Y-99689814D01*
X153131271Y-99606552D01*
X153167009Y-99577222D01*
X153184913Y-99567652D01*
X153323533Y-99493557D01*
X153380147Y-99476384D01*
X153493373Y-99442037D01*
X153559558Y-99435518D01*
X153625740Y-99429000D01*
X153714260Y-99429000D01*
X153780443Y-99435519D01*
X153780443Y-99435519D01*
G37*
G36*
X151240443Y-99435519D02*
X151306627Y-99442037D01*
X151419853Y-99476384D01*
X151476467Y-99493557D01*
X151615087Y-99567652D01*
X151632991Y-99577222D01*
X151668729Y-99606552D01*
X151770186Y-99689814D01*
X151853448Y-99791271D01*
X151882778Y-99827009D01*
X151882779Y-99827011D01*
X151966443Y-99983533D01*
X151966443Y-99983534D01*
X152017963Y-100153373D01*
X152035359Y-100330000D01*
X152017963Y-100506627D01*
X151983616Y-100619853D01*
X151966443Y-100676467D01*
X151892348Y-100815087D01*
X151882778Y-100832991D01*
X151853448Y-100868729D01*
X151770186Y-100970186D01*
X151668729Y-101053448D01*
X151632991Y-101082778D01*
X151632989Y-101082779D01*
X151476467Y-101166443D01*
X151419853Y-101183616D01*
X151306627Y-101217963D01*
X151240443Y-101224481D01*
X151174260Y-101231000D01*
X151085740Y-101231000D01*
X151019558Y-101224482D01*
X150953373Y-101217963D01*
X150840147Y-101183616D01*
X150783533Y-101166443D01*
X150627011Y-101082779D01*
X150627009Y-101082778D01*
X150591271Y-101053448D01*
X150489814Y-100970186D01*
X150406552Y-100868729D01*
X150377222Y-100832991D01*
X150367652Y-100815087D01*
X150293557Y-100676467D01*
X150276384Y-100619853D01*
X150242037Y-100506627D01*
X150224641Y-100330000D01*
X150242037Y-100153373D01*
X150293557Y-99983534D01*
X150293557Y-99983533D01*
X150377221Y-99827011D01*
X150377222Y-99827009D01*
X150406552Y-99791271D01*
X150489814Y-99689814D01*
X150591271Y-99606552D01*
X150627009Y-99577222D01*
X150644913Y-99567652D01*
X150783533Y-99493557D01*
X150840147Y-99476384D01*
X150953373Y-99442037D01*
X151019558Y-99435518D01*
X151085740Y-99429000D01*
X151174260Y-99429000D01*
X151240443Y-99435519D01*
X151240443Y-99435519D01*
G37*
G36*
X148700443Y-99435519D02*
X148766627Y-99442037D01*
X148879853Y-99476384D01*
X148936467Y-99493557D01*
X149075087Y-99567652D01*
X149092991Y-99577222D01*
X149128729Y-99606552D01*
X149230186Y-99689814D01*
X149313448Y-99791271D01*
X149342778Y-99827009D01*
X149342779Y-99827011D01*
X149426443Y-99983533D01*
X149426443Y-99983534D01*
X149477963Y-100153373D01*
X149495359Y-100330000D01*
X149477963Y-100506627D01*
X149443616Y-100619853D01*
X149426443Y-100676467D01*
X149352348Y-100815087D01*
X149342778Y-100832991D01*
X149313448Y-100868729D01*
X149230186Y-100970186D01*
X149128729Y-101053448D01*
X149092991Y-101082778D01*
X149092989Y-101082779D01*
X148936467Y-101166443D01*
X148879853Y-101183616D01*
X148766627Y-101217963D01*
X148700443Y-101224481D01*
X148634260Y-101231000D01*
X148545740Y-101231000D01*
X148479558Y-101224482D01*
X148413373Y-101217963D01*
X148300147Y-101183616D01*
X148243533Y-101166443D01*
X148087011Y-101082779D01*
X148087009Y-101082778D01*
X148051271Y-101053448D01*
X147949814Y-100970186D01*
X147866552Y-100868729D01*
X147837222Y-100832991D01*
X147827652Y-100815087D01*
X147753557Y-100676467D01*
X147736384Y-100619853D01*
X147702037Y-100506627D01*
X147684641Y-100330000D01*
X147702037Y-100153373D01*
X147753557Y-99983534D01*
X147753557Y-99983533D01*
X147837221Y-99827011D01*
X147837222Y-99827009D01*
X147866552Y-99791271D01*
X147949814Y-99689814D01*
X148051271Y-99606552D01*
X148087009Y-99577222D01*
X148104913Y-99567652D01*
X148243533Y-99493557D01*
X148300147Y-99476384D01*
X148413373Y-99442037D01*
X148479558Y-99435518D01*
X148545740Y-99429000D01*
X148634260Y-99429000D01*
X148700443Y-99435519D01*
X148700443Y-99435519D01*
G37*
G36*
X146951000Y-101231000D02*
X145149000Y-101231000D01*
X145149000Y-99429000D01*
X146951000Y-99429000D01*
X146951000Y-101231000D01*
X146951000Y-101231000D01*
G37*
G36*
X171560443Y-99435519D02*
X171626627Y-99442037D01*
X171739853Y-99476384D01*
X171796467Y-99493557D01*
X171935087Y-99567652D01*
X171952991Y-99577222D01*
X171988729Y-99606552D01*
X172090186Y-99689814D01*
X172173448Y-99791271D01*
X172202778Y-99827009D01*
X172202779Y-99827011D01*
X172286443Y-99983533D01*
X172286443Y-99983534D01*
X172337963Y-100153373D01*
X172355359Y-100330000D01*
X172337963Y-100506627D01*
X172303616Y-100619853D01*
X172286443Y-100676467D01*
X172212348Y-100815087D01*
X172202778Y-100832991D01*
X172173448Y-100868729D01*
X172090186Y-100970186D01*
X171988729Y-101053448D01*
X171952991Y-101082778D01*
X171952989Y-101082779D01*
X171796467Y-101166443D01*
X171739853Y-101183616D01*
X171626627Y-101217963D01*
X171560443Y-101224481D01*
X171494260Y-101231000D01*
X171405740Y-101231000D01*
X171339558Y-101224482D01*
X171273373Y-101217963D01*
X171160147Y-101183616D01*
X171103533Y-101166443D01*
X170947011Y-101082779D01*
X170947009Y-101082778D01*
X170911271Y-101053448D01*
X170809814Y-100970186D01*
X170726552Y-100868729D01*
X170697222Y-100832991D01*
X170687652Y-100815087D01*
X170613557Y-100676467D01*
X170596384Y-100619853D01*
X170562037Y-100506627D01*
X170544641Y-100330000D01*
X170562037Y-100153373D01*
X170613557Y-99983534D01*
X170613557Y-99983533D01*
X170697221Y-99827011D01*
X170697222Y-99827009D01*
X170726552Y-99791271D01*
X170809814Y-99689814D01*
X170911271Y-99606552D01*
X170947009Y-99577222D01*
X170964913Y-99567652D01*
X171103533Y-99493557D01*
X171160147Y-99476384D01*
X171273373Y-99442037D01*
X171339558Y-99435518D01*
X171405740Y-99429000D01*
X171494260Y-99429000D01*
X171560443Y-99435519D01*
X171560443Y-99435519D01*
G37*
G36*
X156320443Y-99435519D02*
X156386627Y-99442037D01*
X156499853Y-99476384D01*
X156556467Y-99493557D01*
X156695087Y-99567652D01*
X156712991Y-99577222D01*
X156748729Y-99606552D01*
X156850186Y-99689814D01*
X156933448Y-99791271D01*
X156962778Y-99827009D01*
X156962779Y-99827011D01*
X157046443Y-99983533D01*
X157046443Y-99983534D01*
X157097963Y-100153373D01*
X157115359Y-100330000D01*
X157097963Y-100506627D01*
X157063616Y-100619853D01*
X157046443Y-100676467D01*
X156972348Y-100815087D01*
X156962778Y-100832991D01*
X156933448Y-100868729D01*
X156850186Y-100970186D01*
X156748729Y-101053448D01*
X156712991Y-101082778D01*
X156712989Y-101082779D01*
X156556467Y-101166443D01*
X156499853Y-101183616D01*
X156386627Y-101217963D01*
X156320443Y-101224481D01*
X156254260Y-101231000D01*
X156165740Y-101231000D01*
X156099558Y-101224482D01*
X156033373Y-101217963D01*
X155920147Y-101183616D01*
X155863533Y-101166443D01*
X155707011Y-101082779D01*
X155707009Y-101082778D01*
X155671271Y-101053448D01*
X155569814Y-100970186D01*
X155486552Y-100868729D01*
X155457222Y-100832991D01*
X155447652Y-100815087D01*
X155373557Y-100676467D01*
X155356384Y-100619853D01*
X155322037Y-100506627D01*
X155304641Y-100330000D01*
X155322037Y-100153373D01*
X155373557Y-99983534D01*
X155373557Y-99983533D01*
X155457221Y-99827011D01*
X155457222Y-99827009D01*
X155486552Y-99791271D01*
X155569814Y-99689814D01*
X155671271Y-99606552D01*
X155707009Y-99577222D01*
X155724913Y-99567652D01*
X155863533Y-99493557D01*
X155920147Y-99476384D01*
X156033373Y-99442037D01*
X156099558Y-99435518D01*
X156165740Y-99429000D01*
X156254260Y-99429000D01*
X156320443Y-99435519D01*
X156320443Y-99435519D01*
G37*
M02*
