G04 #@! TF.GenerationSoftware,KiCad,Pcbnew,5.0.2+dfsg1-1*
G04 #@! TF.CreationDate,2021-01-06T22:48:14+01:00*
G04 #@! TF.ProjectId,esp_12e_proto_board,6573705f-3132-4655-9f70-726f746f5f62,B*
G04 #@! TF.SameCoordinates,Original*
G04 #@! TF.FileFunction,Copper,L1,Top*
G04 #@! TF.FilePolarity,Positive*
%FSLAX46Y46*%
G04 Gerber Fmt 4.6, Leading zero omitted, Abs format (unit mm)*
G04 Created by KiCad (PCBNEW 5.0.2+dfsg1-1) date Wed 06 Jan 2021 10:48:14 PM CET*
%MOMM*%
%LPD*%
G01*
G04 APERTURE LIST*
G04 #@! TA.AperFunction,SMDPad,CuDef*
%ADD10R,2.500000X1.000000*%
G04 #@! TD*
G04 #@! TA.AperFunction,SMDPad,CuDef*
%ADD11R,1.000000X1.800000*%
G04 #@! TD*
G04 #@! TA.AperFunction,ComponentPad*
%ADD12O,1.700000X1.700000*%
G04 #@! TD*
G04 #@! TA.AperFunction,ComponentPad*
%ADD13R,1.700000X1.700000*%
G04 #@! TD*
G04 #@! TA.AperFunction,ViaPad*
%ADD14C,0.600000*%
G04 #@! TD*
G04 #@! TA.AperFunction,Conductor*
%ADD15C,0.177800*%
G04 #@! TD*
G04 #@! TA.AperFunction,Conductor*
%ADD16C,0.127000*%
G04 #@! TD*
G04 #@! TA.AperFunction,Conductor*
%ADD17C,0.200000*%
G04 #@! TD*
G04 APERTURE END LIST*
D10*
G04 #@! TO.P,U1,1*
G04 #@! TO.N,~RST*
X123718000Y-92766000D03*
G04 #@! TO.P,U1,2*
G04 #@! TO.N,ADC*
X123718000Y-94766000D03*
G04 #@! TO.P,U1,3*
G04 #@! TO.N,EN*
X123718000Y-96766000D03*
G04 #@! TO.P,U1,4*
G04 #@! TO.N,GPIO16*
X123718000Y-98766000D03*
G04 #@! TO.P,U1,5*
G04 #@! TO.N,GPIO14*
X123718000Y-100766000D03*
G04 #@! TO.P,U1,6*
G04 #@! TO.N,GPIO12*
X123718000Y-102766000D03*
G04 #@! TO.P,U1,7*
G04 #@! TO.N,GPIO13*
X123718000Y-104766000D03*
G04 #@! TO.P,U1,8*
G04 #@! TO.N,+3V3*
X123718000Y-106766000D03*
D11*
G04 #@! TO.P,U1,9*
G04 #@! TO.N,CS0*
X126318000Y-108266000D03*
G04 #@! TO.P,U1,10*
G04 #@! TO.N,MISO*
X128318000Y-108266000D03*
G04 #@! TO.P,U1,11*
G04 #@! TO.N,GPIO9*
X130318000Y-108266000D03*
G04 #@! TO.P,U1,12*
G04 #@! TO.N,GPIO10*
X132318000Y-108266000D03*
G04 #@! TO.P,U1,13*
G04 #@! TO.N,MOSI*
X134318000Y-108266000D03*
G04 #@! TO.P,U1,14*
G04 #@! TO.N,SCLK*
X136318000Y-108266000D03*
D10*
G04 #@! TO.P,U1,15*
G04 #@! TO.N,GND*
X138918000Y-106766000D03*
G04 #@! TO.P,U1,16*
G04 #@! TO.N,GPIO15*
X138918000Y-104766000D03*
G04 #@! TO.P,U1,17*
G04 #@! TO.N,GPIO2*
X138918000Y-102766000D03*
G04 #@! TO.P,U1,18*
G04 #@! TO.N,GPIO0*
X138918000Y-100766000D03*
G04 #@! TO.P,U1,19*
G04 #@! TO.N,GPIO4*
X138918000Y-98766000D03*
G04 #@! TO.P,U1,20*
G04 #@! TO.N,GPIO5*
X138918000Y-96766000D03*
G04 #@! TO.P,U1,21*
G04 #@! TO.N,RXD0*
X138918000Y-94766000D03*
G04 #@! TO.P,U1,22*
G04 #@! TO.N,TXD0*
X138918000Y-92766000D03*
G04 #@! TD*
D12*
G04 #@! TO.P,J1,11*
G04 #@! TO.N,GND*
X171450000Y-100330000D03*
G04 #@! TO.P,J1,10*
G04 #@! TO.N,GPIO10*
X168910000Y-100330000D03*
G04 #@! TO.P,J1,9*
G04 #@! TO.N,MOSI*
X166370000Y-100330000D03*
G04 #@! TO.P,J1,8*
G04 #@! TO.N,SCLK*
X163830000Y-100330000D03*
G04 #@! TO.P,J1,7*
G04 #@! TO.N,GPIO15*
X161290000Y-100330000D03*
G04 #@! TO.P,J1,6*
G04 #@! TO.N,GPIO2*
X158750000Y-100330000D03*
G04 #@! TO.P,J1,5*
G04 #@! TO.N,GPIO0*
X156210000Y-100330000D03*
G04 #@! TO.P,J1,4*
G04 #@! TO.N,GPIO4*
X153670000Y-100330000D03*
G04 #@! TO.P,J1,3*
G04 #@! TO.N,GPIO5*
X151130000Y-100330000D03*
G04 #@! TO.P,J1,2*
G04 #@! TO.N,RXD0*
X148590000Y-100330000D03*
D13*
G04 #@! TO.P,J1,1*
G04 #@! TO.N,TXD0*
X146050000Y-100330000D03*
G04 #@! TD*
G04 #@! TO.P,J2,1*
G04 #@! TO.N,+3V3*
X146050000Y-107950000D03*
D12*
G04 #@! TO.P,J2,2*
G04 #@! TO.N,CS0*
X148590000Y-107950000D03*
G04 #@! TO.P,J2,3*
G04 #@! TO.N,MISO*
X151130000Y-107950000D03*
G04 #@! TO.P,J2,4*
G04 #@! TO.N,GPIO9*
X153670000Y-107950000D03*
G04 #@! TO.P,J2,5*
G04 #@! TO.N,GPIO13*
X156210000Y-107950000D03*
G04 #@! TO.P,J2,6*
G04 #@! TO.N,GPIO12*
X158750000Y-107950000D03*
G04 #@! TO.P,J2,7*
G04 #@! TO.N,GPIO14*
X161290000Y-107950000D03*
G04 #@! TO.P,J2,8*
G04 #@! TO.N,GPIO16*
X163830000Y-107950000D03*
G04 #@! TO.P,J2,9*
G04 #@! TO.N,EN*
X166370000Y-107950000D03*
G04 #@! TO.P,J2,10*
G04 #@! TO.N,ADC*
X168910000Y-107950000D03*
G04 #@! TO.P,J2,11*
G04 #@! TO.N,~RST*
X171450000Y-107950000D03*
G04 #@! TD*
D14*
G04 #@! TO.N,GND*
X135100000Y-103700000D03*
G04 #@! TO.N,CS0*
X130800000Y-110200000D03*
G04 #@! TO.N,MISO*
X130800000Y-105800000D03*
G04 #@! TO.N,GPIO9*
X133800000Y-105800000D03*
G04 #@! TO.N,GPIO13*
X127000000Y-104766000D03*
G04 #@! TO.N,GPIO12*
X127000000Y-102766000D03*
G04 #@! TO.N,GPIO14*
X127000000Y-100766000D03*
G04 #@! TO.N,GPIO16*
X127000000Y-98766000D03*
G04 #@! TO.N,EN*
X127000000Y-96766000D03*
G04 #@! TO.N,ADC*
X127000000Y-94766000D03*
G04 #@! TO.N,~RST*
X127000000Y-92766000D03*
G04 #@! TD*
D15*
G04 #@! TO.N,GND*
X138918000Y-106766000D02*
X139668000Y-106766000D01*
X135102000Y-103700000D02*
X135100000Y-103700000D01*
X138168000Y-106766000D02*
X135102000Y-103700000D01*
X138918000Y-106766000D02*
X138168000Y-106766000D01*
G04 #@! TO.N,SCLK*
X136318000Y-108266000D02*
X136995800Y-108266000D01*
X136318000Y-108266000D02*
X140273000Y-108266000D01*
X162980001Y-101179999D02*
X163830000Y-100330000D01*
X159715141Y-104444859D02*
X162980001Y-101179999D01*
X144094141Y-104444859D02*
X159715141Y-104444859D01*
X140273000Y-108266000D02*
X144094141Y-104444859D01*
G04 #@! TO.N,MOSI*
X134318000Y-108666000D02*
X135634000Y-109982000D01*
X134318000Y-108266000D02*
X134318000Y-108666000D01*
X161899531Y-104800469D02*
X165520001Y-101179999D01*
X165520001Y-101179999D02*
X166370000Y-100330000D01*
X139065000Y-109982000D02*
X144246531Y-104800469D01*
X144246531Y-104800469D02*
X161899531Y-104800469D01*
X135634000Y-109982000D02*
X139065000Y-109982000D01*
G04 #@! TO.N,GPIO10*
X132318000Y-108266000D02*
X132318000Y-108666000D01*
X164083921Y-105156079D02*
X168060001Y-101179999D01*
X144393829Y-105156079D02*
X164083921Y-105156079D01*
X139212299Y-110337609D02*
X144393829Y-105156079D01*
X133311810Y-110337610D02*
X139212299Y-110337609D01*
X132318000Y-109343800D02*
X133311810Y-110337610D01*
X168060001Y-101179999D02*
X168910000Y-100330000D01*
X132318000Y-108266000D02*
X132318000Y-109343800D01*
G04 #@! TO.N,GPIO15*
X157530751Y-104089249D02*
X160440001Y-101179999D01*
X141022551Y-104089249D02*
X157530751Y-104089249D01*
X140345800Y-104766000D02*
X141022551Y-104089249D01*
X160440001Y-101179999D02*
X161290000Y-100330000D01*
X138918000Y-104766000D02*
X140345800Y-104766000D01*
G04 #@! TO.N,GPIO2*
X158750000Y-101532081D02*
X158750000Y-100330000D01*
X141313439Y-103733639D02*
X156548442Y-103733639D01*
X140345800Y-102766000D02*
X141313439Y-103733639D01*
X156548442Y-103733639D02*
X158750000Y-101532081D01*
X138918000Y-102766000D02*
X140345800Y-102766000D01*
G04 #@! TO.N,GPIO0*
X144708921Y-103378029D02*
X155371771Y-103378029D01*
X142096892Y-100766000D02*
X144708921Y-103378029D01*
X138918000Y-100766000D02*
X142096892Y-100766000D01*
X156210000Y-102539800D02*
X156210000Y-100330000D01*
X155371771Y-103378029D02*
X156210000Y-102539800D01*
G04 #@! TO.N,GPIO4*
X138918000Y-98766000D02*
X142582131Y-98766000D01*
X143128990Y-99312859D02*
X143128990Y-101295190D01*
X142582131Y-98766000D02*
X143128990Y-99312859D01*
X144856219Y-103022419D02*
X152730181Y-103022419D01*
X143128990Y-101295190D02*
X144856219Y-103022419D01*
X153670000Y-102082600D02*
X153670000Y-100330000D01*
X152730181Y-103022419D02*
X153670000Y-102082600D01*
G04 #@! TO.N,GPIO5*
X145008609Y-102666809D02*
X148793191Y-102666809D01*
X143484600Y-101142800D02*
X145008609Y-102666809D01*
X148793191Y-102666809D02*
X149400000Y-102060000D01*
X143484600Y-99165561D02*
X143484600Y-101142800D01*
X141093039Y-96774000D02*
X143484600Y-99165561D01*
X140353800Y-96774000D02*
X141093039Y-96774000D01*
X149148791Y-102311209D02*
X149400000Y-102060000D01*
X149400000Y-102060000D02*
X151130000Y-100330000D01*
X140345800Y-96766000D02*
X140353800Y-96774000D01*
X138918000Y-96766000D02*
X140345800Y-96766000D01*
D16*
G04 #@! TO.N,RXD0*
X138918000Y-94766000D02*
X139668000Y-94766000D01*
D15*
X139668000Y-94766000D02*
X139720200Y-94818200D01*
X139720200Y-94898253D02*
X143840200Y-99018253D01*
X139720200Y-94818200D02*
X139720200Y-94898253D01*
X143840200Y-99018253D02*
X143840200Y-100965000D01*
X143840200Y-100965000D02*
X145186400Y-102311200D01*
X146608800Y-102311200D02*
X148590000Y-100330000D01*
X145186400Y-102311200D02*
X146608800Y-102311200D01*
G04 #@! TO.N,TXD0*
X143953055Y-98628200D02*
X140843000Y-95518145D01*
X139668000Y-92766000D02*
X138918000Y-92766000D01*
X140843000Y-93941000D02*
X139668000Y-92766000D01*
X140843000Y-95518145D02*
X140843000Y-93941000D01*
X145376000Y-98628200D02*
X146050000Y-99302200D01*
X146050000Y-99302200D02*
X146050000Y-100330000D01*
X143953055Y-98628200D02*
X145376000Y-98628200D01*
G04 #@! TO.N,CS0*
X126318000Y-108266000D02*
X126318000Y-108666000D01*
X126318000Y-108666000D02*
X127852000Y-110200000D01*
X127852000Y-110200000D02*
X128252000Y-110200000D01*
X128252000Y-110200000D02*
X130800000Y-110200000D01*
G04 #@! TO.N,MISO*
X130384000Y-105800000D02*
X130800000Y-105800000D01*
X128318000Y-107866000D02*
X130384000Y-105800000D01*
X128318000Y-108266000D02*
X128318000Y-107866000D01*
G04 #@! TO.N,GPIO9*
X132384000Y-105800000D02*
X133800000Y-105800000D01*
X130318000Y-107866000D02*
X132384000Y-105800000D01*
X130318000Y-108266000D02*
X130318000Y-107866000D01*
G04 #@! TO.N,GPIO13*
X123718000Y-104766000D02*
X127000000Y-104766000D01*
G04 #@! TO.N,GPIO12*
X123718000Y-102766000D02*
X127000000Y-102766000D01*
G04 #@! TO.N,GPIO14*
X123718000Y-100766000D02*
X127000000Y-100766000D01*
G04 #@! TO.N,GPIO16*
X123718000Y-98766000D02*
X127000000Y-98766000D01*
G04 #@! TO.N,EN*
X123718000Y-96766000D02*
X127236600Y-96766000D01*
G04 #@! TO.N,ADC*
X123718000Y-94766000D02*
X127000000Y-94766000D01*
G04 #@! TO.N,~RST*
X123718000Y-92766000D02*
X127000000Y-92766000D01*
G04 #@! TD*
D17*
G04 #@! TO.N,+3V3*
G36*
X144367300Y-96479354D02*
X144359215Y-96520000D01*
X144391245Y-96681027D01*
X144448022Y-96766000D01*
X144482460Y-96817540D01*
X144618973Y-96908755D01*
X144780000Y-96940785D01*
X144820646Y-96932700D01*
X174847301Y-96932700D01*
X174847300Y-111347300D01*
X122332700Y-111347300D01*
X122332700Y-107642914D01*
X122388435Y-107666000D01*
X123613000Y-107666000D01*
X123713000Y-107566000D01*
X123713000Y-106771000D01*
X123723000Y-106771000D01*
X123723000Y-107566000D01*
X123823000Y-107666000D01*
X125047565Y-107666000D01*
X125194582Y-107605104D01*
X125307104Y-107492582D01*
X125359535Y-107366000D01*
X125410164Y-107366000D01*
X125410164Y-109166000D01*
X125441209Y-109322072D01*
X125529616Y-109454384D01*
X125661928Y-109542791D01*
X125818000Y-109573836D01*
X126534428Y-109573836D01*
X127472247Y-110511656D01*
X127499523Y-110552477D01*
X127661241Y-110660534D01*
X127803848Y-110688900D01*
X127803849Y-110688900D01*
X127852000Y-110698478D01*
X127900151Y-110688900D01*
X130298950Y-110688900D01*
X130403482Y-110793432D01*
X130660761Y-110900000D01*
X130939239Y-110900000D01*
X131196518Y-110793432D01*
X131393432Y-110596518D01*
X131500000Y-110339239D01*
X131500000Y-110060761D01*
X131393432Y-109803482D01*
X131196518Y-109606568D01*
X131000276Y-109525282D01*
X131106384Y-109454384D01*
X131194791Y-109322072D01*
X131225836Y-109166000D01*
X131225836Y-107649572D01*
X131410164Y-107465244D01*
X131410164Y-109166000D01*
X131441209Y-109322072D01*
X131529616Y-109454384D01*
X131661928Y-109542791D01*
X131818000Y-109573836D01*
X131883711Y-109573836D01*
X131965524Y-109696277D01*
X132006344Y-109723552D01*
X132932060Y-110649269D01*
X132959334Y-110690087D01*
X133000152Y-110717361D01*
X133000154Y-110717363D01*
X133121050Y-110798143D01*
X133121051Y-110798143D01*
X133121052Y-110798144D01*
X133263659Y-110826510D01*
X133311810Y-110836088D01*
X133359961Y-110826510D01*
X139164147Y-110826508D01*
X139212299Y-110836086D01*
X139403058Y-110798142D01*
X139523954Y-110717362D01*
X139523955Y-110717361D01*
X139564776Y-110690085D01*
X139592052Y-110649265D01*
X142186317Y-108055000D01*
X144800000Y-108055000D01*
X144800000Y-108879565D01*
X144860896Y-109026582D01*
X144973418Y-109139104D01*
X145120435Y-109200000D01*
X145945000Y-109200000D01*
X146045000Y-109100000D01*
X146045000Y-107955000D01*
X146055000Y-107955000D01*
X146055000Y-109100000D01*
X146155000Y-109200000D01*
X146979565Y-109200000D01*
X147126582Y-109139104D01*
X147239104Y-109026582D01*
X147300000Y-108879565D01*
X147300000Y-108055000D01*
X147200000Y-107955000D01*
X146055000Y-107955000D01*
X146045000Y-107955000D01*
X144900000Y-107955000D01*
X144800000Y-108055000D01*
X142186317Y-108055000D01*
X142291317Y-107950000D01*
X147315512Y-107950000D01*
X147412527Y-108437725D01*
X147688801Y-108851199D01*
X148102275Y-109127473D01*
X148466891Y-109200000D01*
X148713109Y-109200000D01*
X149077725Y-109127473D01*
X149491199Y-108851199D01*
X149767473Y-108437725D01*
X149860000Y-107972563D01*
X149952527Y-108437725D01*
X150228801Y-108851199D01*
X150642275Y-109127473D01*
X151006891Y-109200000D01*
X151253109Y-109200000D01*
X151617725Y-109127473D01*
X152031199Y-108851199D01*
X152307473Y-108437725D01*
X152400000Y-107972563D01*
X152492527Y-108437725D01*
X152768801Y-108851199D01*
X153182275Y-109127473D01*
X153546891Y-109200000D01*
X153793109Y-109200000D01*
X154157725Y-109127473D01*
X154571199Y-108851199D01*
X154847473Y-108437725D01*
X154940000Y-107972563D01*
X155032527Y-108437725D01*
X155308801Y-108851199D01*
X155722275Y-109127473D01*
X156086891Y-109200000D01*
X156333109Y-109200000D01*
X156697725Y-109127473D01*
X157111199Y-108851199D01*
X157387473Y-108437725D01*
X157480000Y-107972563D01*
X157572527Y-108437725D01*
X157848801Y-108851199D01*
X158262275Y-109127473D01*
X158626891Y-109200000D01*
X158873109Y-109200000D01*
X159237725Y-109127473D01*
X159651199Y-108851199D01*
X159927473Y-108437725D01*
X160020000Y-107972563D01*
X160112527Y-108437725D01*
X160388801Y-108851199D01*
X160802275Y-109127473D01*
X161166891Y-109200000D01*
X161413109Y-109200000D01*
X161777725Y-109127473D01*
X162191199Y-108851199D01*
X162467473Y-108437725D01*
X162560000Y-107972563D01*
X162652527Y-108437725D01*
X162928801Y-108851199D01*
X163342275Y-109127473D01*
X163706891Y-109200000D01*
X163953109Y-109200000D01*
X164317725Y-109127473D01*
X164731199Y-108851199D01*
X165007473Y-108437725D01*
X165100000Y-107972563D01*
X165192527Y-108437725D01*
X165468801Y-108851199D01*
X165882275Y-109127473D01*
X166246891Y-109200000D01*
X166493109Y-109200000D01*
X166857725Y-109127473D01*
X167271199Y-108851199D01*
X167547473Y-108437725D01*
X167640000Y-107972563D01*
X167732527Y-108437725D01*
X168008801Y-108851199D01*
X168422275Y-109127473D01*
X168786891Y-109200000D01*
X169033109Y-109200000D01*
X169397725Y-109127473D01*
X169811199Y-108851199D01*
X170087473Y-108437725D01*
X170180000Y-107972563D01*
X170272527Y-108437725D01*
X170548801Y-108851199D01*
X170962275Y-109127473D01*
X171326891Y-109200000D01*
X171573109Y-109200000D01*
X171937725Y-109127473D01*
X172351199Y-108851199D01*
X172627473Y-108437725D01*
X172724488Y-107950000D01*
X172627473Y-107462275D01*
X172351199Y-107048801D01*
X171937725Y-106772527D01*
X171573109Y-106700000D01*
X171326891Y-106700000D01*
X170962275Y-106772527D01*
X170548801Y-107048801D01*
X170272527Y-107462275D01*
X170180000Y-107927437D01*
X170087473Y-107462275D01*
X169811199Y-107048801D01*
X169397725Y-106772527D01*
X169033109Y-106700000D01*
X168786891Y-106700000D01*
X168422275Y-106772527D01*
X168008801Y-107048801D01*
X167732527Y-107462275D01*
X167640000Y-107927437D01*
X167547473Y-107462275D01*
X167271199Y-107048801D01*
X166857725Y-106772527D01*
X166493109Y-106700000D01*
X166246891Y-106700000D01*
X165882275Y-106772527D01*
X165468801Y-107048801D01*
X165192527Y-107462275D01*
X165100000Y-107927437D01*
X165007473Y-107462275D01*
X164731199Y-107048801D01*
X164317725Y-106772527D01*
X163953109Y-106700000D01*
X163706891Y-106700000D01*
X163342275Y-106772527D01*
X162928801Y-107048801D01*
X162652527Y-107462275D01*
X162560000Y-107927437D01*
X162467473Y-107462275D01*
X162191199Y-107048801D01*
X161777725Y-106772527D01*
X161413109Y-106700000D01*
X161166891Y-106700000D01*
X160802275Y-106772527D01*
X160388801Y-107048801D01*
X160112527Y-107462275D01*
X160020000Y-107927437D01*
X159927473Y-107462275D01*
X159651199Y-107048801D01*
X159237725Y-106772527D01*
X158873109Y-106700000D01*
X158626891Y-106700000D01*
X158262275Y-106772527D01*
X157848801Y-107048801D01*
X157572527Y-107462275D01*
X157480000Y-107927437D01*
X157387473Y-107462275D01*
X157111199Y-107048801D01*
X156697725Y-106772527D01*
X156333109Y-106700000D01*
X156086891Y-106700000D01*
X155722275Y-106772527D01*
X155308801Y-107048801D01*
X155032527Y-107462275D01*
X154940000Y-107927437D01*
X154847473Y-107462275D01*
X154571199Y-107048801D01*
X154157725Y-106772527D01*
X153793109Y-106700000D01*
X153546891Y-106700000D01*
X153182275Y-106772527D01*
X152768801Y-107048801D01*
X152492527Y-107462275D01*
X152400000Y-107927437D01*
X152307473Y-107462275D01*
X152031199Y-107048801D01*
X151617725Y-106772527D01*
X151253109Y-106700000D01*
X151006891Y-106700000D01*
X150642275Y-106772527D01*
X150228801Y-107048801D01*
X149952527Y-107462275D01*
X149860000Y-107927437D01*
X149767473Y-107462275D01*
X149491199Y-107048801D01*
X149077725Y-106772527D01*
X148713109Y-106700000D01*
X148466891Y-106700000D01*
X148102275Y-106772527D01*
X147688801Y-107048801D01*
X147412527Y-107462275D01*
X147315512Y-107950000D01*
X142291317Y-107950000D01*
X143220882Y-107020435D01*
X144800000Y-107020435D01*
X144800000Y-107845000D01*
X144900000Y-107945000D01*
X146045000Y-107945000D01*
X146045000Y-106800000D01*
X146055000Y-106800000D01*
X146055000Y-107945000D01*
X147200000Y-107945000D01*
X147300000Y-107845000D01*
X147300000Y-107020435D01*
X147239104Y-106873418D01*
X147126582Y-106760896D01*
X146979565Y-106700000D01*
X146155000Y-106700000D01*
X146055000Y-106800000D01*
X146045000Y-106800000D01*
X145945000Y-106700000D01*
X145120435Y-106700000D01*
X144973418Y-106760896D01*
X144860896Y-106873418D01*
X144800000Y-107020435D01*
X143220882Y-107020435D01*
X144596338Y-105644979D01*
X164035774Y-105644979D01*
X164083921Y-105654556D01*
X164132068Y-105644979D01*
X164132073Y-105644979D01*
X164274680Y-105616613D01*
X164436398Y-105508556D01*
X164463676Y-105467733D01*
X168423660Y-101507749D01*
X168786891Y-101580000D01*
X169033109Y-101580000D01*
X169397725Y-101507473D01*
X169811199Y-101231199D01*
X170087473Y-100817725D01*
X170180000Y-100352563D01*
X170272527Y-100817725D01*
X170548801Y-101231199D01*
X170962275Y-101507473D01*
X171326891Y-101580000D01*
X171573109Y-101580000D01*
X171937725Y-101507473D01*
X172351199Y-101231199D01*
X172627473Y-100817725D01*
X172724488Y-100330000D01*
X172627473Y-99842275D01*
X172351199Y-99428801D01*
X171937725Y-99152527D01*
X171573109Y-99080000D01*
X171326891Y-99080000D01*
X170962275Y-99152527D01*
X170548801Y-99428801D01*
X170272527Y-99842275D01*
X170180000Y-100307437D01*
X170087473Y-99842275D01*
X169811199Y-99428801D01*
X169397725Y-99152527D01*
X169033109Y-99080000D01*
X168786891Y-99080000D01*
X168422275Y-99152527D01*
X168008801Y-99428801D01*
X167732527Y-99842275D01*
X167640000Y-100307437D01*
X167547473Y-99842275D01*
X167271199Y-99428801D01*
X166857725Y-99152527D01*
X166493109Y-99080000D01*
X166246891Y-99080000D01*
X165882275Y-99152527D01*
X165468801Y-99428801D01*
X165192527Y-99842275D01*
X165100000Y-100307437D01*
X165007473Y-99842275D01*
X164731199Y-99428801D01*
X164317725Y-99152527D01*
X163953109Y-99080000D01*
X163706891Y-99080000D01*
X163342275Y-99152527D01*
X162928801Y-99428801D01*
X162652527Y-99842275D01*
X162560000Y-100307437D01*
X162467473Y-99842275D01*
X162191199Y-99428801D01*
X161777725Y-99152527D01*
X161413109Y-99080000D01*
X161166891Y-99080000D01*
X160802275Y-99152527D01*
X160388801Y-99428801D01*
X160112527Y-99842275D01*
X160020000Y-100307437D01*
X159927473Y-99842275D01*
X159651199Y-99428801D01*
X159237725Y-99152527D01*
X158873109Y-99080000D01*
X158626891Y-99080000D01*
X158262275Y-99152527D01*
X157848801Y-99428801D01*
X157572527Y-99842275D01*
X157480000Y-100307437D01*
X157387473Y-99842275D01*
X157111199Y-99428801D01*
X156697725Y-99152527D01*
X156333109Y-99080000D01*
X156086891Y-99080000D01*
X155722275Y-99152527D01*
X155308801Y-99428801D01*
X155032527Y-99842275D01*
X154940000Y-100307437D01*
X154847473Y-99842275D01*
X154571199Y-99428801D01*
X154157725Y-99152527D01*
X153793109Y-99080000D01*
X153546891Y-99080000D01*
X153182275Y-99152527D01*
X152768801Y-99428801D01*
X152492527Y-99842275D01*
X152400000Y-100307437D01*
X152307473Y-99842275D01*
X152031199Y-99428801D01*
X151617725Y-99152527D01*
X151253109Y-99080000D01*
X151006891Y-99080000D01*
X150642275Y-99152527D01*
X150228801Y-99428801D01*
X149952527Y-99842275D01*
X149860000Y-100307437D01*
X149767473Y-99842275D01*
X149491199Y-99428801D01*
X149077725Y-99152527D01*
X148713109Y-99080000D01*
X148466891Y-99080000D01*
X148102275Y-99152527D01*
X147688801Y-99428801D01*
X147412527Y-99842275D01*
X147315512Y-100330000D01*
X147412251Y-100816340D01*
X147307836Y-100920755D01*
X147307836Y-99480000D01*
X147276791Y-99323928D01*
X147188384Y-99191616D01*
X147056072Y-99103209D01*
X146900000Y-99072164D01*
X146484290Y-99072164D01*
X146455685Y-99029354D01*
X146429753Y-98990544D01*
X146402477Y-98949723D01*
X146361657Y-98922448D01*
X145755754Y-98316546D01*
X145728477Y-98275723D01*
X145566759Y-98167666D01*
X145424152Y-98139300D01*
X145424147Y-98139300D01*
X145376000Y-98129723D01*
X145327853Y-98139300D01*
X144155564Y-98139300D01*
X141331900Y-95315637D01*
X141331900Y-93989147D01*
X141341477Y-93941000D01*
X141331900Y-93892853D01*
X141331900Y-93892848D01*
X141303534Y-93750241D01*
X141195477Y-93588523D01*
X141154656Y-93561247D01*
X140575836Y-92982428D01*
X140575836Y-92266000D01*
X140544791Y-92109928D01*
X140456384Y-91977616D01*
X140324072Y-91889209D01*
X140168000Y-91858164D01*
X137668000Y-91858164D01*
X137511928Y-91889209D01*
X137379616Y-91977616D01*
X137291209Y-92109928D01*
X137260164Y-92266000D01*
X137260164Y-93266000D01*
X137291209Y-93422072D01*
X137379616Y-93554384D01*
X137511928Y-93642791D01*
X137668000Y-93673836D01*
X139884428Y-93673836D01*
X140068755Y-93858164D01*
X137668000Y-93858164D01*
X137511928Y-93889209D01*
X137379616Y-93977616D01*
X137291209Y-94109928D01*
X137260164Y-94266000D01*
X137260164Y-95266000D01*
X137291209Y-95422072D01*
X137379616Y-95554384D01*
X137511928Y-95642791D01*
X137668000Y-95673836D01*
X139804375Y-95673836D01*
X139988703Y-95858164D01*
X137668000Y-95858164D01*
X137511928Y-95889209D01*
X137379616Y-95977616D01*
X137291209Y-96109928D01*
X137260164Y-96266000D01*
X137260164Y-97266000D01*
X137291209Y-97422072D01*
X137379616Y-97554384D01*
X137511928Y-97642791D01*
X137668000Y-97673836D01*
X140168000Y-97673836D01*
X140324072Y-97642791D01*
X140456384Y-97554384D01*
X140544791Y-97422072D01*
X140575836Y-97266000D01*
X140575836Y-97262900D01*
X140890531Y-97262900D01*
X141904731Y-98277100D01*
X140575836Y-98277100D01*
X140575836Y-98266000D01*
X140544791Y-98109928D01*
X140456384Y-97977616D01*
X140324072Y-97889209D01*
X140168000Y-97858164D01*
X137668000Y-97858164D01*
X137511928Y-97889209D01*
X137379616Y-97977616D01*
X137291209Y-98109928D01*
X137260164Y-98266000D01*
X137260164Y-99266000D01*
X137291209Y-99422072D01*
X137379616Y-99554384D01*
X137511928Y-99642791D01*
X137668000Y-99673836D01*
X140168000Y-99673836D01*
X140324072Y-99642791D01*
X140456384Y-99554384D01*
X140544791Y-99422072D01*
X140575836Y-99266000D01*
X140575836Y-99254900D01*
X142379623Y-99254900D01*
X142640090Y-99515368D01*
X142640091Y-100617791D01*
X142476646Y-100454346D01*
X142449369Y-100413523D01*
X142287651Y-100305466D01*
X142145044Y-100277100D01*
X142145039Y-100277100D01*
X142096892Y-100267523D01*
X142048745Y-100277100D01*
X140575836Y-100277100D01*
X140575836Y-100266000D01*
X140544791Y-100109928D01*
X140456384Y-99977616D01*
X140324072Y-99889209D01*
X140168000Y-99858164D01*
X137668000Y-99858164D01*
X137511928Y-99889209D01*
X137379616Y-99977616D01*
X137291209Y-100109928D01*
X137260164Y-100266000D01*
X137260164Y-101266000D01*
X137291209Y-101422072D01*
X137379616Y-101554384D01*
X137511928Y-101642791D01*
X137668000Y-101673836D01*
X140168000Y-101673836D01*
X140324072Y-101642791D01*
X140456384Y-101554384D01*
X140544791Y-101422072D01*
X140575836Y-101266000D01*
X140575836Y-101254900D01*
X141894384Y-101254900D01*
X143884222Y-103244739D01*
X141515948Y-103244739D01*
X140725554Y-102454346D01*
X140698277Y-102413523D01*
X140575836Y-102331710D01*
X140575836Y-102266000D01*
X140544791Y-102109928D01*
X140456384Y-101977616D01*
X140324072Y-101889209D01*
X140168000Y-101858164D01*
X137668000Y-101858164D01*
X137511928Y-101889209D01*
X137379616Y-101977616D01*
X137291209Y-102109928D01*
X137260164Y-102266000D01*
X137260164Y-103266000D01*
X137291209Y-103422072D01*
X137379616Y-103554384D01*
X137511928Y-103642791D01*
X137668000Y-103673836D01*
X140168000Y-103673836D01*
X140324072Y-103642791D01*
X140448226Y-103559835D01*
X140652085Y-103763694D01*
X140642798Y-103777593D01*
X140448226Y-103972165D01*
X140324072Y-103889209D01*
X140168000Y-103858164D01*
X137668000Y-103858164D01*
X137511928Y-103889209D01*
X137379616Y-103977616D01*
X137291209Y-104109928D01*
X137260164Y-104266000D01*
X137260164Y-105166755D01*
X135800000Y-103706592D01*
X135800000Y-103560761D01*
X135693432Y-103303482D01*
X135496518Y-103106568D01*
X135239239Y-103000000D01*
X134960761Y-103000000D01*
X134703482Y-103106568D01*
X134506568Y-103303482D01*
X134400000Y-103560761D01*
X134400000Y-103839239D01*
X134506568Y-104096518D01*
X134703482Y-104293432D01*
X134960761Y-104400000D01*
X135110592Y-104400000D01*
X137260164Y-106549573D01*
X137260164Y-107266000D01*
X137291209Y-107422072D01*
X137379616Y-107554384D01*
X137511928Y-107642791D01*
X137668000Y-107673836D01*
X140168000Y-107673836D01*
X140175185Y-107672407D01*
X140070492Y-107777100D01*
X137225836Y-107777100D01*
X137225836Y-107366000D01*
X137194791Y-107209928D01*
X137106384Y-107077616D01*
X136974072Y-106989209D01*
X136818000Y-106958164D01*
X135818000Y-106958164D01*
X135661928Y-106989209D01*
X135529616Y-107077616D01*
X135441209Y-107209928D01*
X135410164Y-107366000D01*
X135410164Y-109066755D01*
X135225836Y-108882428D01*
X135225836Y-107366000D01*
X135194791Y-107209928D01*
X135106384Y-107077616D01*
X134974072Y-106989209D01*
X134818000Y-106958164D01*
X133818000Y-106958164D01*
X133661928Y-106989209D01*
X133529616Y-107077616D01*
X133441209Y-107209928D01*
X133410164Y-107366000D01*
X133410164Y-109166000D01*
X133441209Y-109322072D01*
X133529616Y-109454384D01*
X133661928Y-109542791D01*
X133818000Y-109573836D01*
X134534428Y-109573836D01*
X134809302Y-109848710D01*
X133514320Y-109848711D01*
X133111835Y-109446226D01*
X133194791Y-109322072D01*
X133225836Y-109166000D01*
X133225836Y-107366000D01*
X133194791Y-107209928D01*
X133106384Y-107077616D01*
X132974072Y-106989209D01*
X132818000Y-106958164D01*
X131917245Y-106958164D01*
X132586509Y-106288900D01*
X133298950Y-106288900D01*
X133403482Y-106393432D01*
X133660761Y-106500000D01*
X133939239Y-106500000D01*
X134196518Y-106393432D01*
X134393432Y-106196518D01*
X134500000Y-105939239D01*
X134500000Y-105660761D01*
X134393432Y-105403482D01*
X134196518Y-105206568D01*
X133939239Y-105100000D01*
X133660761Y-105100000D01*
X133403482Y-105206568D01*
X133298950Y-105311100D01*
X132432146Y-105311100D01*
X132383999Y-105301523D01*
X132335852Y-105311100D01*
X132335848Y-105311100D01*
X132193241Y-105339466D01*
X132031523Y-105447523D01*
X132004247Y-105488344D01*
X131462275Y-106030317D01*
X131500000Y-105939239D01*
X131500000Y-105660761D01*
X131393432Y-105403482D01*
X131196518Y-105206568D01*
X130939239Y-105100000D01*
X130660761Y-105100000D01*
X130403482Y-105206568D01*
X130289788Y-105320262D01*
X130193241Y-105339466D01*
X130031523Y-105447523D01*
X130004247Y-105488344D01*
X128534428Y-106958164D01*
X127818000Y-106958164D01*
X127661928Y-106989209D01*
X127529616Y-107077616D01*
X127441209Y-107209928D01*
X127410164Y-107366000D01*
X127410164Y-109066756D01*
X127225836Y-108882428D01*
X127225836Y-107366000D01*
X127194791Y-107209928D01*
X127106384Y-107077616D01*
X126974072Y-106989209D01*
X126818000Y-106958164D01*
X125818000Y-106958164D01*
X125661928Y-106989209D01*
X125529616Y-107077616D01*
X125441209Y-107209928D01*
X125410164Y-107366000D01*
X125359535Y-107366000D01*
X125368000Y-107345565D01*
X125368000Y-106871000D01*
X125268000Y-106771000D01*
X123723000Y-106771000D01*
X123713000Y-106771000D01*
X123693000Y-106771000D01*
X123693000Y-106761000D01*
X123713000Y-106761000D01*
X123713000Y-105966000D01*
X123723000Y-105966000D01*
X123723000Y-106761000D01*
X125268000Y-106761000D01*
X125368000Y-106661000D01*
X125368000Y-106186435D01*
X125307104Y-106039418D01*
X125194582Y-105926896D01*
X125047565Y-105866000D01*
X123823000Y-105866000D01*
X123723000Y-105966000D01*
X123713000Y-105966000D01*
X123613000Y-105866000D01*
X122388435Y-105866000D01*
X122332700Y-105889086D01*
X122332700Y-105646923D01*
X122468000Y-105673836D01*
X124968000Y-105673836D01*
X125124072Y-105642791D01*
X125256384Y-105554384D01*
X125344791Y-105422072D01*
X125375836Y-105266000D01*
X125375836Y-105254900D01*
X126498950Y-105254900D01*
X126603482Y-105359432D01*
X126860761Y-105466000D01*
X127139239Y-105466000D01*
X127396518Y-105359432D01*
X127593432Y-105162518D01*
X127700000Y-104905239D01*
X127700000Y-104626761D01*
X127593432Y-104369482D01*
X127396518Y-104172568D01*
X127139239Y-104066000D01*
X126860761Y-104066000D01*
X126603482Y-104172568D01*
X126498950Y-104277100D01*
X125375836Y-104277100D01*
X125375836Y-104266000D01*
X125344791Y-104109928D01*
X125256384Y-103977616D01*
X125124072Y-103889209D01*
X124968000Y-103858164D01*
X122468000Y-103858164D01*
X122332700Y-103885077D01*
X122332700Y-103646923D01*
X122468000Y-103673836D01*
X124968000Y-103673836D01*
X125124072Y-103642791D01*
X125256384Y-103554384D01*
X125344791Y-103422072D01*
X125375836Y-103266000D01*
X125375836Y-103254900D01*
X126498950Y-103254900D01*
X126603482Y-103359432D01*
X126860761Y-103466000D01*
X127139239Y-103466000D01*
X127396518Y-103359432D01*
X127593432Y-103162518D01*
X127700000Y-102905239D01*
X127700000Y-102626761D01*
X127593432Y-102369482D01*
X127396518Y-102172568D01*
X127139239Y-102066000D01*
X126860761Y-102066000D01*
X126603482Y-102172568D01*
X126498950Y-102277100D01*
X125375836Y-102277100D01*
X125375836Y-102266000D01*
X125344791Y-102109928D01*
X125256384Y-101977616D01*
X125124072Y-101889209D01*
X124968000Y-101858164D01*
X122468000Y-101858164D01*
X122332700Y-101885077D01*
X122332700Y-101646923D01*
X122468000Y-101673836D01*
X124968000Y-101673836D01*
X125124072Y-101642791D01*
X125256384Y-101554384D01*
X125344791Y-101422072D01*
X125375836Y-101266000D01*
X125375836Y-101254900D01*
X126498950Y-101254900D01*
X126603482Y-101359432D01*
X126860761Y-101466000D01*
X127139239Y-101466000D01*
X127396518Y-101359432D01*
X127593432Y-101162518D01*
X127700000Y-100905239D01*
X127700000Y-100626761D01*
X127593432Y-100369482D01*
X127396518Y-100172568D01*
X127139239Y-100066000D01*
X126860761Y-100066000D01*
X126603482Y-100172568D01*
X126498950Y-100277100D01*
X125375836Y-100277100D01*
X125375836Y-100266000D01*
X125344791Y-100109928D01*
X125256384Y-99977616D01*
X125124072Y-99889209D01*
X124968000Y-99858164D01*
X122468000Y-99858164D01*
X122332700Y-99885077D01*
X122332700Y-99646923D01*
X122468000Y-99673836D01*
X124968000Y-99673836D01*
X125124072Y-99642791D01*
X125256384Y-99554384D01*
X125344791Y-99422072D01*
X125375836Y-99266000D01*
X125375836Y-99254900D01*
X126498950Y-99254900D01*
X126603482Y-99359432D01*
X126860761Y-99466000D01*
X127139239Y-99466000D01*
X127396518Y-99359432D01*
X127593432Y-99162518D01*
X127700000Y-98905239D01*
X127700000Y-98626761D01*
X127593432Y-98369482D01*
X127396518Y-98172568D01*
X127139239Y-98066000D01*
X126860761Y-98066000D01*
X126603482Y-98172568D01*
X126498950Y-98277100D01*
X125375836Y-98277100D01*
X125375836Y-98266000D01*
X125344791Y-98109928D01*
X125256384Y-97977616D01*
X125124072Y-97889209D01*
X124968000Y-97858164D01*
X122468000Y-97858164D01*
X122332700Y-97885077D01*
X122332700Y-97646923D01*
X122468000Y-97673836D01*
X124968000Y-97673836D01*
X125124072Y-97642791D01*
X125256384Y-97554384D01*
X125344791Y-97422072D01*
X125375836Y-97266000D01*
X125375836Y-97254900D01*
X126498950Y-97254900D01*
X126603482Y-97359432D01*
X126860761Y-97466000D01*
X127139239Y-97466000D01*
X127396518Y-97359432D01*
X127593432Y-97162518D01*
X127648529Y-97029501D01*
X127697134Y-96956759D01*
X127735078Y-96766000D01*
X127697134Y-96575241D01*
X127648529Y-96502499D01*
X127593432Y-96369482D01*
X127396518Y-96172568D01*
X127139239Y-96066000D01*
X126860761Y-96066000D01*
X126603482Y-96172568D01*
X126498950Y-96277100D01*
X125375836Y-96277100D01*
X125375836Y-96266000D01*
X125344791Y-96109928D01*
X125256384Y-95977616D01*
X125124072Y-95889209D01*
X124968000Y-95858164D01*
X122468000Y-95858164D01*
X122332700Y-95885077D01*
X122332700Y-95646923D01*
X122468000Y-95673836D01*
X124968000Y-95673836D01*
X125124072Y-95642791D01*
X125256384Y-95554384D01*
X125344791Y-95422072D01*
X125375836Y-95266000D01*
X125375836Y-95254900D01*
X126498950Y-95254900D01*
X126603482Y-95359432D01*
X126860761Y-95466000D01*
X127139239Y-95466000D01*
X127396518Y-95359432D01*
X127593432Y-95162518D01*
X127700000Y-94905239D01*
X127700000Y-94626761D01*
X127593432Y-94369482D01*
X127396518Y-94172568D01*
X127139239Y-94066000D01*
X126860761Y-94066000D01*
X126603482Y-94172568D01*
X126498950Y-94277100D01*
X125375836Y-94277100D01*
X125375836Y-94266000D01*
X125344791Y-94109928D01*
X125256384Y-93977616D01*
X125124072Y-93889209D01*
X124968000Y-93858164D01*
X122468000Y-93858164D01*
X122332700Y-93885077D01*
X122332700Y-93646923D01*
X122468000Y-93673836D01*
X124968000Y-93673836D01*
X125124072Y-93642791D01*
X125256384Y-93554384D01*
X125344791Y-93422072D01*
X125375836Y-93266000D01*
X125375836Y-93254900D01*
X126498950Y-93254900D01*
X126603482Y-93359432D01*
X126860761Y-93466000D01*
X127139239Y-93466000D01*
X127396518Y-93359432D01*
X127593432Y-93162518D01*
X127700000Y-92905239D01*
X127700000Y-92626761D01*
X127593432Y-92369482D01*
X127396518Y-92172568D01*
X127139239Y-92066000D01*
X126860761Y-92066000D01*
X126603482Y-92172568D01*
X126498950Y-92277100D01*
X125375836Y-92277100D01*
X125375836Y-92266000D01*
X125344791Y-92109928D01*
X125256384Y-91977616D01*
X125124072Y-91889209D01*
X124968000Y-91858164D01*
X122468000Y-91858164D01*
X122332700Y-91885077D01*
X122332700Y-91852700D01*
X144367301Y-91852700D01*
X144367300Y-96479354D01*
X144367300Y-96479354D01*
G37*
X144367300Y-96479354D02*
X144359215Y-96520000D01*
X144391245Y-96681027D01*
X144448022Y-96766000D01*
X144482460Y-96817540D01*
X144618973Y-96908755D01*
X144780000Y-96940785D01*
X144820646Y-96932700D01*
X174847301Y-96932700D01*
X174847300Y-111347300D01*
X122332700Y-111347300D01*
X122332700Y-107642914D01*
X122388435Y-107666000D01*
X123613000Y-107666000D01*
X123713000Y-107566000D01*
X123713000Y-106771000D01*
X123723000Y-106771000D01*
X123723000Y-107566000D01*
X123823000Y-107666000D01*
X125047565Y-107666000D01*
X125194582Y-107605104D01*
X125307104Y-107492582D01*
X125359535Y-107366000D01*
X125410164Y-107366000D01*
X125410164Y-109166000D01*
X125441209Y-109322072D01*
X125529616Y-109454384D01*
X125661928Y-109542791D01*
X125818000Y-109573836D01*
X126534428Y-109573836D01*
X127472247Y-110511656D01*
X127499523Y-110552477D01*
X127661241Y-110660534D01*
X127803848Y-110688900D01*
X127803849Y-110688900D01*
X127852000Y-110698478D01*
X127900151Y-110688900D01*
X130298950Y-110688900D01*
X130403482Y-110793432D01*
X130660761Y-110900000D01*
X130939239Y-110900000D01*
X131196518Y-110793432D01*
X131393432Y-110596518D01*
X131500000Y-110339239D01*
X131500000Y-110060761D01*
X131393432Y-109803482D01*
X131196518Y-109606568D01*
X131000276Y-109525282D01*
X131106384Y-109454384D01*
X131194791Y-109322072D01*
X131225836Y-109166000D01*
X131225836Y-107649572D01*
X131410164Y-107465244D01*
X131410164Y-109166000D01*
X131441209Y-109322072D01*
X131529616Y-109454384D01*
X131661928Y-109542791D01*
X131818000Y-109573836D01*
X131883711Y-109573836D01*
X131965524Y-109696277D01*
X132006344Y-109723552D01*
X132932060Y-110649269D01*
X132959334Y-110690087D01*
X133000152Y-110717361D01*
X133000154Y-110717363D01*
X133121050Y-110798143D01*
X133121051Y-110798143D01*
X133121052Y-110798144D01*
X133263659Y-110826510D01*
X133311810Y-110836088D01*
X133359961Y-110826510D01*
X139164147Y-110826508D01*
X139212299Y-110836086D01*
X139403058Y-110798142D01*
X139523954Y-110717362D01*
X139523955Y-110717361D01*
X139564776Y-110690085D01*
X139592052Y-110649265D01*
X142186317Y-108055000D01*
X144800000Y-108055000D01*
X144800000Y-108879565D01*
X144860896Y-109026582D01*
X144973418Y-109139104D01*
X145120435Y-109200000D01*
X145945000Y-109200000D01*
X146045000Y-109100000D01*
X146045000Y-107955000D01*
X146055000Y-107955000D01*
X146055000Y-109100000D01*
X146155000Y-109200000D01*
X146979565Y-109200000D01*
X147126582Y-109139104D01*
X147239104Y-109026582D01*
X147300000Y-108879565D01*
X147300000Y-108055000D01*
X147200000Y-107955000D01*
X146055000Y-107955000D01*
X146045000Y-107955000D01*
X144900000Y-107955000D01*
X144800000Y-108055000D01*
X142186317Y-108055000D01*
X142291317Y-107950000D01*
X147315512Y-107950000D01*
X147412527Y-108437725D01*
X147688801Y-108851199D01*
X148102275Y-109127473D01*
X148466891Y-109200000D01*
X148713109Y-109200000D01*
X149077725Y-109127473D01*
X149491199Y-108851199D01*
X149767473Y-108437725D01*
X149860000Y-107972563D01*
X149952527Y-108437725D01*
X150228801Y-108851199D01*
X150642275Y-109127473D01*
X151006891Y-109200000D01*
X151253109Y-109200000D01*
X151617725Y-109127473D01*
X152031199Y-108851199D01*
X152307473Y-108437725D01*
X152400000Y-107972563D01*
X152492527Y-108437725D01*
X152768801Y-108851199D01*
X153182275Y-109127473D01*
X153546891Y-109200000D01*
X153793109Y-109200000D01*
X154157725Y-109127473D01*
X154571199Y-108851199D01*
X154847473Y-108437725D01*
X154940000Y-107972563D01*
X155032527Y-108437725D01*
X155308801Y-108851199D01*
X155722275Y-109127473D01*
X156086891Y-109200000D01*
X156333109Y-109200000D01*
X156697725Y-109127473D01*
X157111199Y-108851199D01*
X157387473Y-108437725D01*
X157480000Y-107972563D01*
X157572527Y-108437725D01*
X157848801Y-108851199D01*
X158262275Y-109127473D01*
X158626891Y-109200000D01*
X158873109Y-109200000D01*
X159237725Y-109127473D01*
X159651199Y-108851199D01*
X159927473Y-108437725D01*
X160020000Y-107972563D01*
X160112527Y-108437725D01*
X160388801Y-108851199D01*
X160802275Y-109127473D01*
X161166891Y-109200000D01*
X161413109Y-109200000D01*
X161777725Y-109127473D01*
X162191199Y-108851199D01*
X162467473Y-108437725D01*
X162560000Y-107972563D01*
X162652527Y-108437725D01*
X162928801Y-108851199D01*
X163342275Y-109127473D01*
X163706891Y-109200000D01*
X163953109Y-109200000D01*
X164317725Y-109127473D01*
X164731199Y-108851199D01*
X165007473Y-108437725D01*
X165100000Y-107972563D01*
X165192527Y-108437725D01*
X165468801Y-108851199D01*
X165882275Y-109127473D01*
X166246891Y-109200000D01*
X166493109Y-109200000D01*
X166857725Y-109127473D01*
X167271199Y-108851199D01*
X167547473Y-108437725D01*
X167640000Y-107972563D01*
X167732527Y-108437725D01*
X168008801Y-108851199D01*
X168422275Y-109127473D01*
X168786891Y-109200000D01*
X169033109Y-109200000D01*
X169397725Y-109127473D01*
X169811199Y-108851199D01*
X170087473Y-108437725D01*
X170180000Y-107972563D01*
X170272527Y-108437725D01*
X170548801Y-108851199D01*
X170962275Y-109127473D01*
X171326891Y-109200000D01*
X171573109Y-109200000D01*
X171937725Y-109127473D01*
X172351199Y-108851199D01*
X172627473Y-108437725D01*
X172724488Y-107950000D01*
X172627473Y-107462275D01*
X172351199Y-107048801D01*
X171937725Y-106772527D01*
X171573109Y-106700000D01*
X171326891Y-106700000D01*
X170962275Y-106772527D01*
X170548801Y-107048801D01*
X170272527Y-107462275D01*
X170180000Y-107927437D01*
X170087473Y-107462275D01*
X169811199Y-107048801D01*
X169397725Y-106772527D01*
X169033109Y-106700000D01*
X168786891Y-106700000D01*
X168422275Y-106772527D01*
X168008801Y-107048801D01*
X167732527Y-107462275D01*
X167640000Y-107927437D01*
X167547473Y-107462275D01*
X167271199Y-107048801D01*
X166857725Y-106772527D01*
X166493109Y-106700000D01*
X166246891Y-106700000D01*
X165882275Y-106772527D01*
X165468801Y-107048801D01*
X165192527Y-107462275D01*
X165100000Y-107927437D01*
X165007473Y-107462275D01*
X164731199Y-107048801D01*
X164317725Y-106772527D01*
X163953109Y-106700000D01*
X163706891Y-106700000D01*
X163342275Y-106772527D01*
X162928801Y-107048801D01*
X162652527Y-107462275D01*
X162560000Y-107927437D01*
X162467473Y-107462275D01*
X162191199Y-107048801D01*
X161777725Y-106772527D01*
X161413109Y-106700000D01*
X161166891Y-106700000D01*
X160802275Y-106772527D01*
X160388801Y-107048801D01*
X160112527Y-107462275D01*
X160020000Y-107927437D01*
X159927473Y-107462275D01*
X159651199Y-107048801D01*
X159237725Y-106772527D01*
X158873109Y-106700000D01*
X158626891Y-106700000D01*
X158262275Y-106772527D01*
X157848801Y-107048801D01*
X157572527Y-107462275D01*
X157480000Y-107927437D01*
X157387473Y-107462275D01*
X157111199Y-107048801D01*
X156697725Y-106772527D01*
X156333109Y-106700000D01*
X156086891Y-106700000D01*
X155722275Y-106772527D01*
X155308801Y-107048801D01*
X155032527Y-107462275D01*
X154940000Y-107927437D01*
X154847473Y-107462275D01*
X154571199Y-107048801D01*
X154157725Y-106772527D01*
X153793109Y-106700000D01*
X153546891Y-106700000D01*
X153182275Y-106772527D01*
X152768801Y-107048801D01*
X152492527Y-107462275D01*
X152400000Y-107927437D01*
X152307473Y-107462275D01*
X152031199Y-107048801D01*
X151617725Y-106772527D01*
X151253109Y-106700000D01*
X151006891Y-106700000D01*
X150642275Y-106772527D01*
X150228801Y-107048801D01*
X149952527Y-107462275D01*
X149860000Y-107927437D01*
X149767473Y-107462275D01*
X149491199Y-107048801D01*
X149077725Y-106772527D01*
X148713109Y-106700000D01*
X148466891Y-106700000D01*
X148102275Y-106772527D01*
X147688801Y-107048801D01*
X147412527Y-107462275D01*
X147315512Y-107950000D01*
X142291317Y-107950000D01*
X143220882Y-107020435D01*
X144800000Y-107020435D01*
X144800000Y-107845000D01*
X144900000Y-107945000D01*
X146045000Y-107945000D01*
X146045000Y-106800000D01*
X146055000Y-106800000D01*
X146055000Y-107945000D01*
X147200000Y-107945000D01*
X147300000Y-107845000D01*
X147300000Y-107020435D01*
X147239104Y-106873418D01*
X147126582Y-106760896D01*
X146979565Y-106700000D01*
X146155000Y-106700000D01*
X146055000Y-106800000D01*
X146045000Y-106800000D01*
X145945000Y-106700000D01*
X145120435Y-106700000D01*
X144973418Y-106760896D01*
X144860896Y-106873418D01*
X144800000Y-107020435D01*
X143220882Y-107020435D01*
X144596338Y-105644979D01*
X164035774Y-105644979D01*
X164083921Y-105654556D01*
X164132068Y-105644979D01*
X164132073Y-105644979D01*
X164274680Y-105616613D01*
X164436398Y-105508556D01*
X164463676Y-105467733D01*
X168423660Y-101507749D01*
X168786891Y-101580000D01*
X169033109Y-101580000D01*
X169397725Y-101507473D01*
X169811199Y-101231199D01*
X170087473Y-100817725D01*
X170180000Y-100352563D01*
X170272527Y-100817725D01*
X170548801Y-101231199D01*
X170962275Y-101507473D01*
X171326891Y-101580000D01*
X171573109Y-101580000D01*
X171937725Y-101507473D01*
X172351199Y-101231199D01*
X172627473Y-100817725D01*
X172724488Y-100330000D01*
X172627473Y-99842275D01*
X172351199Y-99428801D01*
X171937725Y-99152527D01*
X171573109Y-99080000D01*
X171326891Y-99080000D01*
X170962275Y-99152527D01*
X170548801Y-99428801D01*
X170272527Y-99842275D01*
X170180000Y-100307437D01*
X170087473Y-99842275D01*
X169811199Y-99428801D01*
X169397725Y-99152527D01*
X169033109Y-99080000D01*
X168786891Y-99080000D01*
X168422275Y-99152527D01*
X168008801Y-99428801D01*
X167732527Y-99842275D01*
X167640000Y-100307437D01*
X167547473Y-99842275D01*
X167271199Y-99428801D01*
X166857725Y-99152527D01*
X166493109Y-99080000D01*
X166246891Y-99080000D01*
X165882275Y-99152527D01*
X165468801Y-99428801D01*
X165192527Y-99842275D01*
X165100000Y-100307437D01*
X165007473Y-99842275D01*
X164731199Y-99428801D01*
X164317725Y-99152527D01*
X163953109Y-99080000D01*
X163706891Y-99080000D01*
X163342275Y-99152527D01*
X162928801Y-99428801D01*
X162652527Y-99842275D01*
X162560000Y-100307437D01*
X162467473Y-99842275D01*
X162191199Y-99428801D01*
X161777725Y-99152527D01*
X161413109Y-99080000D01*
X161166891Y-99080000D01*
X160802275Y-99152527D01*
X160388801Y-99428801D01*
X160112527Y-99842275D01*
X160020000Y-100307437D01*
X159927473Y-99842275D01*
X159651199Y-99428801D01*
X159237725Y-99152527D01*
X158873109Y-99080000D01*
X158626891Y-99080000D01*
X158262275Y-99152527D01*
X157848801Y-99428801D01*
X157572527Y-99842275D01*
X157480000Y-100307437D01*
X157387473Y-99842275D01*
X157111199Y-99428801D01*
X156697725Y-99152527D01*
X156333109Y-99080000D01*
X156086891Y-99080000D01*
X155722275Y-99152527D01*
X155308801Y-99428801D01*
X155032527Y-99842275D01*
X154940000Y-100307437D01*
X154847473Y-99842275D01*
X154571199Y-99428801D01*
X154157725Y-99152527D01*
X153793109Y-99080000D01*
X153546891Y-99080000D01*
X153182275Y-99152527D01*
X152768801Y-99428801D01*
X152492527Y-99842275D01*
X152400000Y-100307437D01*
X152307473Y-99842275D01*
X152031199Y-99428801D01*
X151617725Y-99152527D01*
X151253109Y-99080000D01*
X151006891Y-99080000D01*
X150642275Y-99152527D01*
X150228801Y-99428801D01*
X149952527Y-99842275D01*
X149860000Y-100307437D01*
X149767473Y-99842275D01*
X149491199Y-99428801D01*
X149077725Y-99152527D01*
X148713109Y-99080000D01*
X148466891Y-99080000D01*
X148102275Y-99152527D01*
X147688801Y-99428801D01*
X147412527Y-99842275D01*
X147315512Y-100330000D01*
X147412251Y-100816340D01*
X147307836Y-100920755D01*
X147307836Y-99480000D01*
X147276791Y-99323928D01*
X147188384Y-99191616D01*
X147056072Y-99103209D01*
X146900000Y-99072164D01*
X146484290Y-99072164D01*
X146455685Y-99029354D01*
X146429753Y-98990544D01*
X146402477Y-98949723D01*
X146361657Y-98922448D01*
X145755754Y-98316546D01*
X145728477Y-98275723D01*
X145566759Y-98167666D01*
X145424152Y-98139300D01*
X145424147Y-98139300D01*
X145376000Y-98129723D01*
X145327853Y-98139300D01*
X144155564Y-98139300D01*
X141331900Y-95315637D01*
X141331900Y-93989147D01*
X141341477Y-93941000D01*
X141331900Y-93892853D01*
X141331900Y-93892848D01*
X141303534Y-93750241D01*
X141195477Y-93588523D01*
X141154656Y-93561247D01*
X140575836Y-92982428D01*
X140575836Y-92266000D01*
X140544791Y-92109928D01*
X140456384Y-91977616D01*
X140324072Y-91889209D01*
X140168000Y-91858164D01*
X137668000Y-91858164D01*
X137511928Y-91889209D01*
X137379616Y-91977616D01*
X137291209Y-92109928D01*
X137260164Y-92266000D01*
X137260164Y-93266000D01*
X137291209Y-93422072D01*
X137379616Y-93554384D01*
X137511928Y-93642791D01*
X137668000Y-93673836D01*
X139884428Y-93673836D01*
X140068755Y-93858164D01*
X137668000Y-93858164D01*
X137511928Y-93889209D01*
X137379616Y-93977616D01*
X137291209Y-94109928D01*
X137260164Y-94266000D01*
X137260164Y-95266000D01*
X137291209Y-95422072D01*
X137379616Y-95554384D01*
X137511928Y-95642791D01*
X137668000Y-95673836D01*
X139804375Y-95673836D01*
X139988703Y-95858164D01*
X137668000Y-95858164D01*
X137511928Y-95889209D01*
X137379616Y-95977616D01*
X137291209Y-96109928D01*
X137260164Y-96266000D01*
X137260164Y-97266000D01*
X137291209Y-97422072D01*
X137379616Y-97554384D01*
X137511928Y-97642791D01*
X137668000Y-97673836D01*
X140168000Y-97673836D01*
X140324072Y-97642791D01*
X140456384Y-97554384D01*
X140544791Y-97422072D01*
X140575836Y-97266000D01*
X140575836Y-97262900D01*
X140890531Y-97262900D01*
X141904731Y-98277100D01*
X140575836Y-98277100D01*
X140575836Y-98266000D01*
X140544791Y-98109928D01*
X140456384Y-97977616D01*
X140324072Y-97889209D01*
X140168000Y-97858164D01*
X137668000Y-97858164D01*
X137511928Y-97889209D01*
X137379616Y-97977616D01*
X137291209Y-98109928D01*
X137260164Y-98266000D01*
X137260164Y-99266000D01*
X137291209Y-99422072D01*
X137379616Y-99554384D01*
X137511928Y-99642791D01*
X137668000Y-99673836D01*
X140168000Y-99673836D01*
X140324072Y-99642791D01*
X140456384Y-99554384D01*
X140544791Y-99422072D01*
X140575836Y-99266000D01*
X140575836Y-99254900D01*
X142379623Y-99254900D01*
X142640090Y-99515368D01*
X142640091Y-100617791D01*
X142476646Y-100454346D01*
X142449369Y-100413523D01*
X142287651Y-100305466D01*
X142145044Y-100277100D01*
X142145039Y-100277100D01*
X142096892Y-100267523D01*
X142048745Y-100277100D01*
X140575836Y-100277100D01*
X140575836Y-100266000D01*
X140544791Y-100109928D01*
X140456384Y-99977616D01*
X140324072Y-99889209D01*
X140168000Y-99858164D01*
X137668000Y-99858164D01*
X137511928Y-99889209D01*
X137379616Y-99977616D01*
X137291209Y-100109928D01*
X137260164Y-100266000D01*
X137260164Y-101266000D01*
X137291209Y-101422072D01*
X137379616Y-101554384D01*
X137511928Y-101642791D01*
X137668000Y-101673836D01*
X140168000Y-101673836D01*
X140324072Y-101642791D01*
X140456384Y-101554384D01*
X140544791Y-101422072D01*
X140575836Y-101266000D01*
X140575836Y-101254900D01*
X141894384Y-101254900D01*
X143884222Y-103244739D01*
X141515948Y-103244739D01*
X140725554Y-102454346D01*
X140698277Y-102413523D01*
X140575836Y-102331710D01*
X140575836Y-102266000D01*
X140544791Y-102109928D01*
X140456384Y-101977616D01*
X140324072Y-101889209D01*
X140168000Y-101858164D01*
X137668000Y-101858164D01*
X137511928Y-101889209D01*
X137379616Y-101977616D01*
X137291209Y-102109928D01*
X137260164Y-102266000D01*
X137260164Y-103266000D01*
X137291209Y-103422072D01*
X137379616Y-103554384D01*
X137511928Y-103642791D01*
X137668000Y-103673836D01*
X140168000Y-103673836D01*
X140324072Y-103642791D01*
X140448226Y-103559835D01*
X140652085Y-103763694D01*
X140642798Y-103777593D01*
X140448226Y-103972165D01*
X140324072Y-103889209D01*
X140168000Y-103858164D01*
X137668000Y-103858164D01*
X137511928Y-103889209D01*
X137379616Y-103977616D01*
X137291209Y-104109928D01*
X137260164Y-104266000D01*
X137260164Y-105166755D01*
X135800000Y-103706592D01*
X135800000Y-103560761D01*
X135693432Y-103303482D01*
X135496518Y-103106568D01*
X135239239Y-103000000D01*
X134960761Y-103000000D01*
X134703482Y-103106568D01*
X134506568Y-103303482D01*
X134400000Y-103560761D01*
X134400000Y-103839239D01*
X134506568Y-104096518D01*
X134703482Y-104293432D01*
X134960761Y-104400000D01*
X135110592Y-104400000D01*
X137260164Y-106549573D01*
X137260164Y-107266000D01*
X137291209Y-107422072D01*
X137379616Y-107554384D01*
X137511928Y-107642791D01*
X137668000Y-107673836D01*
X140168000Y-107673836D01*
X140175185Y-107672407D01*
X140070492Y-107777100D01*
X137225836Y-107777100D01*
X137225836Y-107366000D01*
X137194791Y-107209928D01*
X137106384Y-107077616D01*
X136974072Y-106989209D01*
X136818000Y-106958164D01*
X135818000Y-106958164D01*
X135661928Y-106989209D01*
X135529616Y-107077616D01*
X135441209Y-107209928D01*
X135410164Y-107366000D01*
X135410164Y-109066755D01*
X135225836Y-108882428D01*
X135225836Y-107366000D01*
X135194791Y-107209928D01*
X135106384Y-107077616D01*
X134974072Y-106989209D01*
X134818000Y-106958164D01*
X133818000Y-106958164D01*
X133661928Y-106989209D01*
X133529616Y-107077616D01*
X133441209Y-107209928D01*
X133410164Y-107366000D01*
X133410164Y-109166000D01*
X133441209Y-109322072D01*
X133529616Y-109454384D01*
X133661928Y-109542791D01*
X133818000Y-109573836D01*
X134534428Y-109573836D01*
X134809302Y-109848710D01*
X133514320Y-109848711D01*
X133111835Y-109446226D01*
X133194791Y-109322072D01*
X133225836Y-109166000D01*
X133225836Y-107366000D01*
X133194791Y-107209928D01*
X133106384Y-107077616D01*
X132974072Y-106989209D01*
X132818000Y-106958164D01*
X131917245Y-106958164D01*
X132586509Y-106288900D01*
X133298950Y-106288900D01*
X133403482Y-106393432D01*
X133660761Y-106500000D01*
X133939239Y-106500000D01*
X134196518Y-106393432D01*
X134393432Y-106196518D01*
X134500000Y-105939239D01*
X134500000Y-105660761D01*
X134393432Y-105403482D01*
X134196518Y-105206568D01*
X133939239Y-105100000D01*
X133660761Y-105100000D01*
X133403482Y-105206568D01*
X133298950Y-105311100D01*
X132432146Y-105311100D01*
X132383999Y-105301523D01*
X132335852Y-105311100D01*
X132335848Y-105311100D01*
X132193241Y-105339466D01*
X132031523Y-105447523D01*
X132004247Y-105488344D01*
X131462275Y-106030317D01*
X131500000Y-105939239D01*
X131500000Y-105660761D01*
X131393432Y-105403482D01*
X131196518Y-105206568D01*
X130939239Y-105100000D01*
X130660761Y-105100000D01*
X130403482Y-105206568D01*
X130289788Y-105320262D01*
X130193241Y-105339466D01*
X130031523Y-105447523D01*
X130004247Y-105488344D01*
X128534428Y-106958164D01*
X127818000Y-106958164D01*
X127661928Y-106989209D01*
X127529616Y-107077616D01*
X127441209Y-107209928D01*
X127410164Y-107366000D01*
X127410164Y-109066756D01*
X127225836Y-108882428D01*
X127225836Y-107366000D01*
X127194791Y-107209928D01*
X127106384Y-107077616D01*
X126974072Y-106989209D01*
X126818000Y-106958164D01*
X125818000Y-106958164D01*
X125661928Y-106989209D01*
X125529616Y-107077616D01*
X125441209Y-107209928D01*
X125410164Y-107366000D01*
X125359535Y-107366000D01*
X125368000Y-107345565D01*
X125368000Y-106871000D01*
X125268000Y-106771000D01*
X123723000Y-106771000D01*
X123713000Y-106771000D01*
X123693000Y-106771000D01*
X123693000Y-106761000D01*
X123713000Y-106761000D01*
X123713000Y-105966000D01*
X123723000Y-105966000D01*
X123723000Y-106761000D01*
X125268000Y-106761000D01*
X125368000Y-106661000D01*
X125368000Y-106186435D01*
X125307104Y-106039418D01*
X125194582Y-105926896D01*
X125047565Y-105866000D01*
X123823000Y-105866000D01*
X123723000Y-105966000D01*
X123713000Y-105966000D01*
X123613000Y-105866000D01*
X122388435Y-105866000D01*
X122332700Y-105889086D01*
X122332700Y-105646923D01*
X122468000Y-105673836D01*
X124968000Y-105673836D01*
X125124072Y-105642791D01*
X125256384Y-105554384D01*
X125344791Y-105422072D01*
X125375836Y-105266000D01*
X125375836Y-105254900D01*
X126498950Y-105254900D01*
X126603482Y-105359432D01*
X126860761Y-105466000D01*
X127139239Y-105466000D01*
X127396518Y-105359432D01*
X127593432Y-105162518D01*
X127700000Y-104905239D01*
X127700000Y-104626761D01*
X127593432Y-104369482D01*
X127396518Y-104172568D01*
X127139239Y-104066000D01*
X126860761Y-104066000D01*
X126603482Y-104172568D01*
X126498950Y-104277100D01*
X125375836Y-104277100D01*
X125375836Y-104266000D01*
X125344791Y-104109928D01*
X125256384Y-103977616D01*
X125124072Y-103889209D01*
X124968000Y-103858164D01*
X122468000Y-103858164D01*
X122332700Y-103885077D01*
X122332700Y-103646923D01*
X122468000Y-103673836D01*
X124968000Y-103673836D01*
X125124072Y-103642791D01*
X125256384Y-103554384D01*
X125344791Y-103422072D01*
X125375836Y-103266000D01*
X125375836Y-103254900D01*
X126498950Y-103254900D01*
X126603482Y-103359432D01*
X126860761Y-103466000D01*
X127139239Y-103466000D01*
X127396518Y-103359432D01*
X127593432Y-103162518D01*
X127700000Y-102905239D01*
X127700000Y-102626761D01*
X127593432Y-102369482D01*
X127396518Y-102172568D01*
X127139239Y-102066000D01*
X126860761Y-102066000D01*
X126603482Y-102172568D01*
X126498950Y-102277100D01*
X125375836Y-102277100D01*
X125375836Y-102266000D01*
X125344791Y-102109928D01*
X125256384Y-101977616D01*
X125124072Y-101889209D01*
X124968000Y-101858164D01*
X122468000Y-101858164D01*
X122332700Y-101885077D01*
X122332700Y-101646923D01*
X122468000Y-101673836D01*
X124968000Y-101673836D01*
X125124072Y-101642791D01*
X125256384Y-101554384D01*
X125344791Y-101422072D01*
X125375836Y-101266000D01*
X125375836Y-101254900D01*
X126498950Y-101254900D01*
X126603482Y-101359432D01*
X126860761Y-101466000D01*
X127139239Y-101466000D01*
X127396518Y-101359432D01*
X127593432Y-101162518D01*
X127700000Y-100905239D01*
X127700000Y-100626761D01*
X127593432Y-100369482D01*
X127396518Y-100172568D01*
X127139239Y-100066000D01*
X126860761Y-100066000D01*
X126603482Y-100172568D01*
X126498950Y-100277100D01*
X125375836Y-100277100D01*
X125375836Y-100266000D01*
X125344791Y-100109928D01*
X125256384Y-99977616D01*
X125124072Y-99889209D01*
X124968000Y-99858164D01*
X122468000Y-99858164D01*
X122332700Y-99885077D01*
X122332700Y-99646923D01*
X122468000Y-99673836D01*
X124968000Y-99673836D01*
X125124072Y-99642791D01*
X125256384Y-99554384D01*
X125344791Y-99422072D01*
X125375836Y-99266000D01*
X125375836Y-99254900D01*
X126498950Y-99254900D01*
X126603482Y-99359432D01*
X126860761Y-99466000D01*
X127139239Y-99466000D01*
X127396518Y-99359432D01*
X127593432Y-99162518D01*
X127700000Y-98905239D01*
X127700000Y-98626761D01*
X127593432Y-98369482D01*
X127396518Y-98172568D01*
X127139239Y-98066000D01*
X126860761Y-98066000D01*
X126603482Y-98172568D01*
X126498950Y-98277100D01*
X125375836Y-98277100D01*
X125375836Y-98266000D01*
X125344791Y-98109928D01*
X125256384Y-97977616D01*
X125124072Y-97889209D01*
X124968000Y-97858164D01*
X122468000Y-97858164D01*
X122332700Y-97885077D01*
X122332700Y-97646923D01*
X122468000Y-97673836D01*
X124968000Y-97673836D01*
X125124072Y-97642791D01*
X125256384Y-97554384D01*
X125344791Y-97422072D01*
X125375836Y-97266000D01*
X125375836Y-97254900D01*
X126498950Y-97254900D01*
X126603482Y-97359432D01*
X126860761Y-97466000D01*
X127139239Y-97466000D01*
X127396518Y-97359432D01*
X127593432Y-97162518D01*
X127648529Y-97029501D01*
X127697134Y-96956759D01*
X127735078Y-96766000D01*
X127697134Y-96575241D01*
X127648529Y-96502499D01*
X127593432Y-96369482D01*
X127396518Y-96172568D01*
X127139239Y-96066000D01*
X126860761Y-96066000D01*
X126603482Y-96172568D01*
X126498950Y-96277100D01*
X125375836Y-96277100D01*
X125375836Y-96266000D01*
X125344791Y-96109928D01*
X125256384Y-95977616D01*
X125124072Y-95889209D01*
X124968000Y-95858164D01*
X122468000Y-95858164D01*
X122332700Y-95885077D01*
X122332700Y-95646923D01*
X122468000Y-95673836D01*
X124968000Y-95673836D01*
X125124072Y-95642791D01*
X125256384Y-95554384D01*
X125344791Y-95422072D01*
X125375836Y-95266000D01*
X125375836Y-95254900D01*
X126498950Y-95254900D01*
X126603482Y-95359432D01*
X126860761Y-95466000D01*
X127139239Y-95466000D01*
X127396518Y-95359432D01*
X127593432Y-95162518D01*
X127700000Y-94905239D01*
X127700000Y-94626761D01*
X127593432Y-94369482D01*
X127396518Y-94172568D01*
X127139239Y-94066000D01*
X126860761Y-94066000D01*
X126603482Y-94172568D01*
X126498950Y-94277100D01*
X125375836Y-94277100D01*
X125375836Y-94266000D01*
X125344791Y-94109928D01*
X125256384Y-93977616D01*
X125124072Y-93889209D01*
X124968000Y-93858164D01*
X122468000Y-93858164D01*
X122332700Y-93885077D01*
X122332700Y-93646923D01*
X122468000Y-93673836D01*
X124968000Y-93673836D01*
X125124072Y-93642791D01*
X125256384Y-93554384D01*
X125344791Y-93422072D01*
X125375836Y-93266000D01*
X125375836Y-93254900D01*
X126498950Y-93254900D01*
X126603482Y-93359432D01*
X126860761Y-93466000D01*
X127139239Y-93466000D01*
X127396518Y-93359432D01*
X127593432Y-93162518D01*
X127700000Y-92905239D01*
X127700000Y-92626761D01*
X127593432Y-92369482D01*
X127396518Y-92172568D01*
X127139239Y-92066000D01*
X126860761Y-92066000D01*
X126603482Y-92172568D01*
X126498950Y-92277100D01*
X125375836Y-92277100D01*
X125375836Y-92266000D01*
X125344791Y-92109928D01*
X125256384Y-91977616D01*
X125124072Y-91889209D01*
X124968000Y-91858164D01*
X122468000Y-91858164D01*
X122332700Y-91885077D01*
X122332700Y-91852700D01*
X144367301Y-91852700D01*
X144367300Y-96479354D01*
G04 #@! TD*
M02*
