M48
;DRILL file {KiCad 5.0.2+dfsg1-1} date Wed 06 Jan 2021 10:48:06 PM CET
;FORMAT={-:-/ absolute / inch / decimal}
FMAT,2
INCH,TZ
T1C0.0118
T2C0.0394
%
G90
G05
T1
X5.Y-3.6522
X5.Y-3.7309
X5.Y-3.8097
X5.Y-3.8884
X5.Y-3.9672
X5.Y-4.0459
X5.Y-4.1246
X5.1496Y-4.1654
X5.1496Y-4.3386
X5.2677Y-4.1654
X5.3189Y-4.0827
T2
X5.75Y-4.25
X5.85Y-4.25
X5.95Y-4.25
X6.05Y-4.25
X6.15Y-4.25
X6.25Y-4.25
X6.35Y-4.25
X6.45Y-4.25
X6.55Y-4.25
X6.65Y-4.25
X6.75Y-4.25
X5.75Y-3.95
X5.85Y-3.95
X5.95Y-3.95
X6.05Y-3.95
X6.15Y-3.95
X6.25Y-3.95
X6.35Y-3.95
X6.45Y-3.95
X6.55Y-3.95
X6.65Y-3.95
X6.75Y-3.95
T0
M30
