G04 #@! TF.GenerationSoftware,KiCad,Pcbnew,5.0.2+dfsg1-1*
G04 #@! TF.CreationDate,2021-01-06T22:48:14+01:00*
G04 #@! TF.ProjectId,esp_12e_proto_board,6573705f-3132-4655-9f70-726f746f5f62,B*
G04 #@! TF.SameCoordinates,Original*
G04 #@! TF.FileFunction,Copper,L2,Bot*
G04 #@! TF.FilePolarity,Positive*
%FSLAX46Y46*%
G04 Gerber Fmt 4.6, Leading zero omitted, Abs format (unit mm)*
G04 Created by KiCad (PCBNEW 5.0.2+dfsg1-1) date Wed 06 Jan 2021 10:48:14 PM CET*
%MOMM*%
%LPD*%
G01*
G04 APERTURE LIST*
G04 #@! TA.AperFunction,ComponentPad*
%ADD10O,1.700000X1.700000*%
G04 #@! TD*
G04 #@! TA.AperFunction,ComponentPad*
%ADD11R,1.700000X1.700000*%
G04 #@! TD*
G04 #@! TA.AperFunction,ViaPad*
%ADD12C,0.600000*%
G04 #@! TD*
G04 #@! TA.AperFunction,Conductor*
%ADD13C,0.177800*%
G04 #@! TD*
G04 #@! TA.AperFunction,Conductor*
%ADD14C,0.200000*%
G04 #@! TD*
G04 APERTURE END LIST*
D10*
G04 #@! TO.P,J1,11*
G04 #@! TO.N,GND*
X171450000Y-100330000D03*
G04 #@! TO.P,J1,10*
G04 #@! TO.N,GPIO10*
X168910000Y-100330000D03*
G04 #@! TO.P,J1,9*
G04 #@! TO.N,MOSI*
X166370000Y-100330000D03*
G04 #@! TO.P,J1,8*
G04 #@! TO.N,SCLK*
X163830000Y-100330000D03*
G04 #@! TO.P,J1,7*
G04 #@! TO.N,GPIO15*
X161290000Y-100330000D03*
G04 #@! TO.P,J1,6*
G04 #@! TO.N,GPIO2*
X158750000Y-100330000D03*
G04 #@! TO.P,J1,5*
G04 #@! TO.N,GPIO0*
X156210000Y-100330000D03*
G04 #@! TO.P,J1,4*
G04 #@! TO.N,GPIO4*
X153670000Y-100330000D03*
G04 #@! TO.P,J1,3*
G04 #@! TO.N,GPIO5*
X151130000Y-100330000D03*
G04 #@! TO.P,J1,2*
G04 #@! TO.N,RXD0*
X148590000Y-100330000D03*
D11*
G04 #@! TO.P,J1,1*
G04 #@! TO.N,TXD0*
X146050000Y-100330000D03*
G04 #@! TD*
G04 #@! TO.P,J2,1*
G04 #@! TO.N,+3V3*
X146050000Y-107950000D03*
D10*
G04 #@! TO.P,J2,2*
G04 #@! TO.N,CS0*
X148590000Y-107950000D03*
G04 #@! TO.P,J2,3*
G04 #@! TO.N,MISO*
X151130000Y-107950000D03*
G04 #@! TO.P,J2,4*
G04 #@! TO.N,GPIO9*
X153670000Y-107950000D03*
G04 #@! TO.P,J2,5*
G04 #@! TO.N,GPIO13*
X156210000Y-107950000D03*
G04 #@! TO.P,J2,6*
G04 #@! TO.N,GPIO12*
X158750000Y-107950000D03*
G04 #@! TO.P,J2,7*
G04 #@! TO.N,GPIO14*
X161290000Y-107950000D03*
G04 #@! TO.P,J2,8*
G04 #@! TO.N,GPIO16*
X163830000Y-107950000D03*
G04 #@! TO.P,J2,9*
G04 #@! TO.N,EN*
X166370000Y-107950000D03*
G04 #@! TO.P,J2,10*
G04 #@! TO.N,ADC*
X168910000Y-107950000D03*
G04 #@! TO.P,J2,11*
G04 #@! TO.N,~RST*
X171450000Y-107950000D03*
G04 #@! TD*
D12*
G04 #@! TO.N,GND*
X135100000Y-103700000D03*
G04 #@! TO.N,CS0*
X130800000Y-110200000D03*
G04 #@! TO.N,MISO*
X130800000Y-105800000D03*
G04 #@! TO.N,GPIO9*
X133800000Y-105800000D03*
G04 #@! TO.N,GPIO13*
X127000000Y-104766000D03*
G04 #@! TO.N,GPIO12*
X127000000Y-102766000D03*
G04 #@! TO.N,GPIO14*
X127000000Y-100766000D03*
G04 #@! TO.N,GPIO16*
X127000000Y-98766000D03*
G04 #@! TO.N,EN*
X127000000Y-96766000D03*
G04 #@! TO.N,ADC*
X127000000Y-94766000D03*
G04 #@! TO.N,~RST*
X127000000Y-92766000D03*
G04 #@! TD*
D13*
G04 #@! TO.N,CS0*
X146340000Y-110200000D02*
X148590000Y-107950000D01*
X130800000Y-110200000D02*
X146340000Y-110200000D01*
G04 #@! TO.N,MISO*
X130800000Y-105800000D02*
X132600000Y-105800000D01*
X149546701Y-106366701D02*
X150280001Y-107100001D01*
X133166701Y-106366701D02*
X149546701Y-106366701D01*
X150280001Y-107100001D02*
X151130000Y-107950000D01*
X132600000Y-105800000D02*
X133166701Y-106366701D01*
G04 #@! TO.N,GPIO9*
X151520000Y-105800000D02*
X153670000Y-107950000D01*
X133800000Y-105800000D02*
X151520000Y-105800000D01*
G04 #@! TO.N,GPIO13*
X135800000Y-104766000D02*
X153026000Y-104766000D01*
X127000000Y-104766000D02*
X135800000Y-104766000D01*
X153026000Y-104766000D02*
X156210000Y-107950000D01*
X135800000Y-104766000D02*
X135966000Y-104766000D01*
G04 #@! TO.N,GPIO12*
X157900001Y-107100001D02*
X158750000Y-107950000D01*
X127000000Y-102766000D02*
X143166000Y-102766000D01*
X143166000Y-102766000D02*
X144755610Y-104355610D01*
X155155610Y-104355610D02*
X157900001Y-107100001D01*
X144755610Y-104355610D02*
X155155610Y-104355610D01*
G04 #@! TO.N,GPIO14*
X145097092Y-104000000D02*
X157340000Y-104000000D01*
X157340000Y-104000000D02*
X161290000Y-107950000D01*
X141863092Y-100766000D02*
X145097092Y-104000000D01*
X127000000Y-100766000D02*
X141863092Y-100766000D01*
G04 #@! TO.N,GPIO16*
X162980001Y-107100001D02*
X163830000Y-107950000D01*
X127000000Y-98766000D02*
X140366000Y-98766000D01*
X140366000Y-98766000D02*
X145155610Y-103555610D01*
X145155610Y-103555610D02*
X159435610Y-103555610D01*
X159435610Y-103555610D02*
X162980001Y-107100001D01*
G04 #@! TO.N,EN*
X145394184Y-103200000D02*
X161620000Y-103200000D01*
X138960184Y-96766000D02*
X145394184Y-103200000D01*
X161620000Y-103200000D02*
X166370000Y-107950000D01*
X127000000Y-96766000D02*
X138960184Y-96766000D01*
G04 #@! TO.N,ADC*
X163760000Y-102800000D02*
X168910000Y-107950000D01*
X145497092Y-102800000D02*
X163760000Y-102800000D01*
X137463092Y-94766000D02*
X145497092Y-102800000D01*
X127000000Y-94766000D02*
X137463092Y-94766000D01*
G04 #@! TO.N,~RST*
X127000000Y-92766000D02*
X135966000Y-92766000D01*
X135966000Y-92766000D02*
X145500000Y-102300000D01*
X165800000Y-102300000D02*
X170333299Y-106833299D01*
X145500000Y-102300000D02*
X165800000Y-102300000D01*
X170333299Y-106833299D02*
X171450000Y-107950000D01*
G04 #@! TD*
D14*
G04 #@! TO.N,GND*
G36*
X144367300Y-96479354D02*
X144359215Y-96520000D01*
X144391245Y-96681027D01*
X144448022Y-96766000D01*
X144482460Y-96817540D01*
X144618973Y-96908755D01*
X144780000Y-96940785D01*
X144820646Y-96932700D01*
X174847301Y-96932700D01*
X174847300Y-111347300D01*
X122332700Y-111347300D01*
X122332700Y-92626761D01*
X126300000Y-92626761D01*
X126300000Y-92905239D01*
X126406568Y-93162518D01*
X126603482Y-93359432D01*
X126860761Y-93466000D01*
X127139239Y-93466000D01*
X127396518Y-93359432D01*
X127501050Y-93254900D01*
X135763492Y-93254900D01*
X136785692Y-94277100D01*
X127501050Y-94277100D01*
X127396518Y-94172568D01*
X127139239Y-94066000D01*
X126860761Y-94066000D01*
X126603482Y-94172568D01*
X126406568Y-94369482D01*
X126300000Y-94626761D01*
X126300000Y-94905239D01*
X126406568Y-95162518D01*
X126603482Y-95359432D01*
X126860761Y-95466000D01*
X127139239Y-95466000D01*
X127396518Y-95359432D01*
X127501050Y-95254900D01*
X137260584Y-95254900D01*
X138282784Y-96277100D01*
X127501050Y-96277100D01*
X127396518Y-96172568D01*
X127139239Y-96066000D01*
X126860761Y-96066000D01*
X126603482Y-96172568D01*
X126406568Y-96369482D01*
X126300000Y-96626761D01*
X126300000Y-96905239D01*
X126406568Y-97162518D01*
X126603482Y-97359432D01*
X126860761Y-97466000D01*
X127139239Y-97466000D01*
X127396518Y-97359432D01*
X127501050Y-97254900D01*
X138757676Y-97254900D01*
X139779876Y-98277100D01*
X127501050Y-98277100D01*
X127396518Y-98172568D01*
X127139239Y-98066000D01*
X126860761Y-98066000D01*
X126603482Y-98172568D01*
X126406568Y-98369482D01*
X126300000Y-98626761D01*
X126300000Y-98905239D01*
X126406568Y-99162518D01*
X126603482Y-99359432D01*
X126860761Y-99466000D01*
X127139239Y-99466000D01*
X127396518Y-99359432D01*
X127501050Y-99254900D01*
X140163492Y-99254900D01*
X141185692Y-100277100D01*
X127501050Y-100277100D01*
X127396518Y-100172568D01*
X127139239Y-100066000D01*
X126860761Y-100066000D01*
X126603482Y-100172568D01*
X126406568Y-100369482D01*
X126300000Y-100626761D01*
X126300000Y-100905239D01*
X126406568Y-101162518D01*
X126603482Y-101359432D01*
X126860761Y-101466000D01*
X127139239Y-101466000D01*
X127396518Y-101359432D01*
X127501050Y-101254900D01*
X141660584Y-101254900D01*
X142682784Y-102277100D01*
X127501050Y-102277100D01*
X127396518Y-102172568D01*
X127139239Y-102066000D01*
X126860761Y-102066000D01*
X126603482Y-102172568D01*
X126406568Y-102369482D01*
X126300000Y-102626761D01*
X126300000Y-102905239D01*
X126406568Y-103162518D01*
X126603482Y-103359432D01*
X126860761Y-103466000D01*
X127139239Y-103466000D01*
X127396518Y-103359432D01*
X127501050Y-103254900D01*
X142963492Y-103254900D01*
X143985691Y-104277100D01*
X127501050Y-104277100D01*
X127396518Y-104172568D01*
X127139239Y-104066000D01*
X126860761Y-104066000D01*
X126603482Y-104172568D01*
X126406568Y-104369482D01*
X126300000Y-104626761D01*
X126300000Y-104905239D01*
X126406568Y-105162518D01*
X126603482Y-105359432D01*
X126860761Y-105466000D01*
X127139239Y-105466000D01*
X127396518Y-105359432D01*
X127501050Y-105254900D01*
X130355150Y-105254900D01*
X130206568Y-105403482D01*
X130100000Y-105660761D01*
X130100000Y-105939239D01*
X130206568Y-106196518D01*
X130403482Y-106393432D01*
X130660761Y-106500000D01*
X130939239Y-106500000D01*
X131196518Y-106393432D01*
X131301050Y-106288900D01*
X132397492Y-106288900D01*
X132786947Y-106678356D01*
X132814224Y-106719178D01*
X132975942Y-106827235D01*
X133118549Y-106855601D01*
X133118553Y-106855601D01*
X133166700Y-106865178D01*
X133214847Y-106855601D01*
X144882227Y-106855601D01*
X144823209Y-106943928D01*
X144792164Y-107100000D01*
X144792164Y-108800000D01*
X144823209Y-108956072D01*
X144911616Y-109088384D01*
X145043928Y-109176791D01*
X145200000Y-109207836D01*
X146640756Y-109207836D01*
X146137492Y-109711100D01*
X131301050Y-109711100D01*
X131196518Y-109606568D01*
X130939239Y-109500000D01*
X130660761Y-109500000D01*
X130403482Y-109606568D01*
X130206568Y-109803482D01*
X130100000Y-110060761D01*
X130100000Y-110339239D01*
X130206568Y-110596518D01*
X130403482Y-110793432D01*
X130660761Y-110900000D01*
X130939239Y-110900000D01*
X131196518Y-110793432D01*
X131301050Y-110688900D01*
X146291853Y-110688900D01*
X146340000Y-110698477D01*
X146388147Y-110688900D01*
X146388152Y-110688900D01*
X146530759Y-110660534D01*
X146692477Y-110552477D01*
X146719754Y-110511654D01*
X148103660Y-109127749D01*
X148466891Y-109200000D01*
X148713109Y-109200000D01*
X149077725Y-109127473D01*
X149491199Y-108851199D01*
X149767473Y-108437725D01*
X149860000Y-107972563D01*
X149952527Y-108437725D01*
X150228801Y-108851199D01*
X150642275Y-109127473D01*
X151006891Y-109200000D01*
X151253109Y-109200000D01*
X151617725Y-109127473D01*
X152031199Y-108851199D01*
X152307473Y-108437725D01*
X152400000Y-107972563D01*
X152492527Y-108437725D01*
X152768801Y-108851199D01*
X153182275Y-109127473D01*
X153546891Y-109200000D01*
X153793109Y-109200000D01*
X154157725Y-109127473D01*
X154571199Y-108851199D01*
X154847473Y-108437725D01*
X154940000Y-107972563D01*
X155032527Y-108437725D01*
X155308801Y-108851199D01*
X155722275Y-109127473D01*
X156086891Y-109200000D01*
X156333109Y-109200000D01*
X156697725Y-109127473D01*
X157111199Y-108851199D01*
X157387473Y-108437725D01*
X157480000Y-107972563D01*
X157572527Y-108437725D01*
X157848801Y-108851199D01*
X158262275Y-109127473D01*
X158626891Y-109200000D01*
X158873109Y-109200000D01*
X159237725Y-109127473D01*
X159651199Y-108851199D01*
X159927473Y-108437725D01*
X160020000Y-107972563D01*
X160112527Y-108437725D01*
X160388801Y-108851199D01*
X160802275Y-109127473D01*
X161166891Y-109200000D01*
X161413109Y-109200000D01*
X161777725Y-109127473D01*
X162191199Y-108851199D01*
X162467473Y-108437725D01*
X162560000Y-107972563D01*
X162652527Y-108437725D01*
X162928801Y-108851199D01*
X163342275Y-109127473D01*
X163706891Y-109200000D01*
X163953109Y-109200000D01*
X164317725Y-109127473D01*
X164731199Y-108851199D01*
X165007473Y-108437725D01*
X165100000Y-107972563D01*
X165192527Y-108437725D01*
X165468801Y-108851199D01*
X165882275Y-109127473D01*
X166246891Y-109200000D01*
X166493109Y-109200000D01*
X166857725Y-109127473D01*
X167271199Y-108851199D01*
X167547473Y-108437725D01*
X167640000Y-107972563D01*
X167732527Y-108437725D01*
X168008801Y-108851199D01*
X168422275Y-109127473D01*
X168786891Y-109200000D01*
X169033109Y-109200000D01*
X169397725Y-109127473D01*
X169811199Y-108851199D01*
X170087473Y-108437725D01*
X170180000Y-107972563D01*
X170272527Y-108437725D01*
X170548801Y-108851199D01*
X170962275Y-109127473D01*
X171326891Y-109200000D01*
X171573109Y-109200000D01*
X171937725Y-109127473D01*
X172351199Y-108851199D01*
X172627473Y-108437725D01*
X172724488Y-107950000D01*
X172627473Y-107462275D01*
X172351199Y-107048801D01*
X171937725Y-106772527D01*
X171573109Y-106700000D01*
X171326891Y-106700000D01*
X170963660Y-106772252D01*
X170713054Y-106521646D01*
X170713052Y-106521643D01*
X166179755Y-101988346D01*
X166152477Y-101947523D01*
X165990759Y-101839466D01*
X165848152Y-101811100D01*
X165848147Y-101811100D01*
X165800000Y-101801523D01*
X165751853Y-101811100D01*
X145702509Y-101811100D01*
X145479245Y-101587836D01*
X146900000Y-101587836D01*
X147056072Y-101556791D01*
X147188384Y-101468384D01*
X147276791Y-101336072D01*
X147307836Y-101180000D01*
X147307836Y-100330000D01*
X147315512Y-100330000D01*
X147412527Y-100817725D01*
X147688801Y-101231199D01*
X148102275Y-101507473D01*
X148466891Y-101580000D01*
X148713109Y-101580000D01*
X149077725Y-101507473D01*
X149491199Y-101231199D01*
X149767473Y-100817725D01*
X149860000Y-100352563D01*
X149952527Y-100817725D01*
X150228801Y-101231199D01*
X150642275Y-101507473D01*
X151006891Y-101580000D01*
X151253109Y-101580000D01*
X151617725Y-101507473D01*
X152031199Y-101231199D01*
X152307473Y-100817725D01*
X152400000Y-100352563D01*
X152492527Y-100817725D01*
X152768801Y-101231199D01*
X153182275Y-101507473D01*
X153546891Y-101580000D01*
X153793109Y-101580000D01*
X154157725Y-101507473D01*
X154571199Y-101231199D01*
X154847473Y-100817725D01*
X154940000Y-100352563D01*
X155032527Y-100817725D01*
X155308801Y-101231199D01*
X155722275Y-101507473D01*
X156086891Y-101580000D01*
X156333109Y-101580000D01*
X156697725Y-101507473D01*
X157111199Y-101231199D01*
X157387473Y-100817725D01*
X157480000Y-100352563D01*
X157572527Y-100817725D01*
X157848801Y-101231199D01*
X158262275Y-101507473D01*
X158626891Y-101580000D01*
X158873109Y-101580000D01*
X159237725Y-101507473D01*
X159651199Y-101231199D01*
X159927473Y-100817725D01*
X160020000Y-100352563D01*
X160112527Y-100817725D01*
X160388801Y-101231199D01*
X160802275Y-101507473D01*
X161166891Y-101580000D01*
X161413109Y-101580000D01*
X161777725Y-101507473D01*
X162191199Y-101231199D01*
X162467473Y-100817725D01*
X162560000Y-100352563D01*
X162652527Y-100817725D01*
X162928801Y-101231199D01*
X163342275Y-101507473D01*
X163706891Y-101580000D01*
X163953109Y-101580000D01*
X164317725Y-101507473D01*
X164731199Y-101231199D01*
X165007473Y-100817725D01*
X165100000Y-100352563D01*
X165192527Y-100817725D01*
X165468801Y-101231199D01*
X165882275Y-101507473D01*
X166246891Y-101580000D01*
X166493109Y-101580000D01*
X166857725Y-101507473D01*
X167271199Y-101231199D01*
X167547473Y-100817725D01*
X167640000Y-100352563D01*
X167732527Y-100817725D01*
X168008801Y-101231199D01*
X168422275Y-101507473D01*
X168786891Y-101580000D01*
X169033109Y-101580000D01*
X169397725Y-101507473D01*
X169811199Y-101231199D01*
X170087473Y-100817725D01*
X170144609Y-100530480D01*
X170216182Y-100530480D01*
X170386821Y-100987381D01*
X170719319Y-101344202D01*
X171163057Y-101546620D01*
X171249520Y-101563818D01*
X171445000Y-101479989D01*
X171445000Y-100335000D01*
X171455000Y-100335000D01*
X171455000Y-101479989D01*
X171650480Y-101563818D01*
X171736943Y-101546620D01*
X172180681Y-101344202D01*
X172513179Y-100987381D01*
X172683818Y-100530480D01*
X172599990Y-100335000D01*
X171455000Y-100335000D01*
X171445000Y-100335000D01*
X170300010Y-100335000D01*
X170216182Y-100530480D01*
X170144609Y-100530480D01*
X170184488Y-100330000D01*
X170144610Y-100129520D01*
X170216182Y-100129520D01*
X170300010Y-100325000D01*
X171445000Y-100325000D01*
X171445000Y-99180011D01*
X171455000Y-99180011D01*
X171455000Y-100325000D01*
X172599990Y-100325000D01*
X172683818Y-100129520D01*
X172513179Y-99672619D01*
X172180681Y-99315798D01*
X171736943Y-99113380D01*
X171650480Y-99096182D01*
X171455000Y-99180011D01*
X171445000Y-99180011D01*
X171249520Y-99096182D01*
X171163057Y-99113380D01*
X170719319Y-99315798D01*
X170386821Y-99672619D01*
X170216182Y-100129520D01*
X170144610Y-100129520D01*
X170087473Y-99842275D01*
X169811199Y-99428801D01*
X169397725Y-99152527D01*
X169033109Y-99080000D01*
X168786891Y-99080000D01*
X168422275Y-99152527D01*
X168008801Y-99428801D01*
X167732527Y-99842275D01*
X167640000Y-100307437D01*
X167547473Y-99842275D01*
X167271199Y-99428801D01*
X166857725Y-99152527D01*
X166493109Y-99080000D01*
X166246891Y-99080000D01*
X165882275Y-99152527D01*
X165468801Y-99428801D01*
X165192527Y-99842275D01*
X165100000Y-100307437D01*
X165007473Y-99842275D01*
X164731199Y-99428801D01*
X164317725Y-99152527D01*
X163953109Y-99080000D01*
X163706891Y-99080000D01*
X163342275Y-99152527D01*
X162928801Y-99428801D01*
X162652527Y-99842275D01*
X162560000Y-100307437D01*
X162467473Y-99842275D01*
X162191199Y-99428801D01*
X161777725Y-99152527D01*
X161413109Y-99080000D01*
X161166891Y-99080000D01*
X160802275Y-99152527D01*
X160388801Y-99428801D01*
X160112527Y-99842275D01*
X160020000Y-100307437D01*
X159927473Y-99842275D01*
X159651199Y-99428801D01*
X159237725Y-99152527D01*
X158873109Y-99080000D01*
X158626891Y-99080000D01*
X158262275Y-99152527D01*
X157848801Y-99428801D01*
X157572527Y-99842275D01*
X157480000Y-100307437D01*
X157387473Y-99842275D01*
X157111199Y-99428801D01*
X156697725Y-99152527D01*
X156333109Y-99080000D01*
X156086891Y-99080000D01*
X155722275Y-99152527D01*
X155308801Y-99428801D01*
X155032527Y-99842275D01*
X154940000Y-100307437D01*
X154847473Y-99842275D01*
X154571199Y-99428801D01*
X154157725Y-99152527D01*
X153793109Y-99080000D01*
X153546891Y-99080000D01*
X153182275Y-99152527D01*
X152768801Y-99428801D01*
X152492527Y-99842275D01*
X152400000Y-100307437D01*
X152307473Y-99842275D01*
X152031199Y-99428801D01*
X151617725Y-99152527D01*
X151253109Y-99080000D01*
X151006891Y-99080000D01*
X150642275Y-99152527D01*
X150228801Y-99428801D01*
X149952527Y-99842275D01*
X149860000Y-100307437D01*
X149767473Y-99842275D01*
X149491199Y-99428801D01*
X149077725Y-99152527D01*
X148713109Y-99080000D01*
X148466891Y-99080000D01*
X148102275Y-99152527D01*
X147688801Y-99428801D01*
X147412527Y-99842275D01*
X147315512Y-100330000D01*
X147307836Y-100330000D01*
X147307836Y-99480000D01*
X147276791Y-99323928D01*
X147188384Y-99191616D01*
X147056072Y-99103209D01*
X146900000Y-99072164D01*
X145200000Y-99072164D01*
X145043928Y-99103209D01*
X144911616Y-99191616D01*
X144823209Y-99323928D01*
X144792164Y-99480000D01*
X144792164Y-100900755D01*
X136345755Y-92454347D01*
X136318477Y-92413523D01*
X136156759Y-92305466D01*
X136014152Y-92277100D01*
X136014147Y-92277100D01*
X135966000Y-92267523D01*
X135917853Y-92277100D01*
X127501050Y-92277100D01*
X127396518Y-92172568D01*
X127139239Y-92066000D01*
X126860761Y-92066000D01*
X126603482Y-92172568D01*
X126406568Y-92369482D01*
X126300000Y-92626761D01*
X122332700Y-92626761D01*
X122332700Y-91852700D01*
X144367301Y-91852700D01*
X144367300Y-96479354D01*
X144367300Y-96479354D01*
G37*
X144367300Y-96479354D02*
X144359215Y-96520000D01*
X144391245Y-96681027D01*
X144448022Y-96766000D01*
X144482460Y-96817540D01*
X144618973Y-96908755D01*
X144780000Y-96940785D01*
X144820646Y-96932700D01*
X174847301Y-96932700D01*
X174847300Y-111347300D01*
X122332700Y-111347300D01*
X122332700Y-92626761D01*
X126300000Y-92626761D01*
X126300000Y-92905239D01*
X126406568Y-93162518D01*
X126603482Y-93359432D01*
X126860761Y-93466000D01*
X127139239Y-93466000D01*
X127396518Y-93359432D01*
X127501050Y-93254900D01*
X135763492Y-93254900D01*
X136785692Y-94277100D01*
X127501050Y-94277100D01*
X127396518Y-94172568D01*
X127139239Y-94066000D01*
X126860761Y-94066000D01*
X126603482Y-94172568D01*
X126406568Y-94369482D01*
X126300000Y-94626761D01*
X126300000Y-94905239D01*
X126406568Y-95162518D01*
X126603482Y-95359432D01*
X126860761Y-95466000D01*
X127139239Y-95466000D01*
X127396518Y-95359432D01*
X127501050Y-95254900D01*
X137260584Y-95254900D01*
X138282784Y-96277100D01*
X127501050Y-96277100D01*
X127396518Y-96172568D01*
X127139239Y-96066000D01*
X126860761Y-96066000D01*
X126603482Y-96172568D01*
X126406568Y-96369482D01*
X126300000Y-96626761D01*
X126300000Y-96905239D01*
X126406568Y-97162518D01*
X126603482Y-97359432D01*
X126860761Y-97466000D01*
X127139239Y-97466000D01*
X127396518Y-97359432D01*
X127501050Y-97254900D01*
X138757676Y-97254900D01*
X139779876Y-98277100D01*
X127501050Y-98277100D01*
X127396518Y-98172568D01*
X127139239Y-98066000D01*
X126860761Y-98066000D01*
X126603482Y-98172568D01*
X126406568Y-98369482D01*
X126300000Y-98626761D01*
X126300000Y-98905239D01*
X126406568Y-99162518D01*
X126603482Y-99359432D01*
X126860761Y-99466000D01*
X127139239Y-99466000D01*
X127396518Y-99359432D01*
X127501050Y-99254900D01*
X140163492Y-99254900D01*
X141185692Y-100277100D01*
X127501050Y-100277100D01*
X127396518Y-100172568D01*
X127139239Y-100066000D01*
X126860761Y-100066000D01*
X126603482Y-100172568D01*
X126406568Y-100369482D01*
X126300000Y-100626761D01*
X126300000Y-100905239D01*
X126406568Y-101162518D01*
X126603482Y-101359432D01*
X126860761Y-101466000D01*
X127139239Y-101466000D01*
X127396518Y-101359432D01*
X127501050Y-101254900D01*
X141660584Y-101254900D01*
X142682784Y-102277100D01*
X127501050Y-102277100D01*
X127396518Y-102172568D01*
X127139239Y-102066000D01*
X126860761Y-102066000D01*
X126603482Y-102172568D01*
X126406568Y-102369482D01*
X126300000Y-102626761D01*
X126300000Y-102905239D01*
X126406568Y-103162518D01*
X126603482Y-103359432D01*
X126860761Y-103466000D01*
X127139239Y-103466000D01*
X127396518Y-103359432D01*
X127501050Y-103254900D01*
X142963492Y-103254900D01*
X143985691Y-104277100D01*
X127501050Y-104277100D01*
X127396518Y-104172568D01*
X127139239Y-104066000D01*
X126860761Y-104066000D01*
X126603482Y-104172568D01*
X126406568Y-104369482D01*
X126300000Y-104626761D01*
X126300000Y-104905239D01*
X126406568Y-105162518D01*
X126603482Y-105359432D01*
X126860761Y-105466000D01*
X127139239Y-105466000D01*
X127396518Y-105359432D01*
X127501050Y-105254900D01*
X130355150Y-105254900D01*
X130206568Y-105403482D01*
X130100000Y-105660761D01*
X130100000Y-105939239D01*
X130206568Y-106196518D01*
X130403482Y-106393432D01*
X130660761Y-106500000D01*
X130939239Y-106500000D01*
X131196518Y-106393432D01*
X131301050Y-106288900D01*
X132397492Y-106288900D01*
X132786947Y-106678356D01*
X132814224Y-106719178D01*
X132975942Y-106827235D01*
X133118549Y-106855601D01*
X133118553Y-106855601D01*
X133166700Y-106865178D01*
X133214847Y-106855601D01*
X144882227Y-106855601D01*
X144823209Y-106943928D01*
X144792164Y-107100000D01*
X144792164Y-108800000D01*
X144823209Y-108956072D01*
X144911616Y-109088384D01*
X145043928Y-109176791D01*
X145200000Y-109207836D01*
X146640756Y-109207836D01*
X146137492Y-109711100D01*
X131301050Y-109711100D01*
X131196518Y-109606568D01*
X130939239Y-109500000D01*
X130660761Y-109500000D01*
X130403482Y-109606568D01*
X130206568Y-109803482D01*
X130100000Y-110060761D01*
X130100000Y-110339239D01*
X130206568Y-110596518D01*
X130403482Y-110793432D01*
X130660761Y-110900000D01*
X130939239Y-110900000D01*
X131196518Y-110793432D01*
X131301050Y-110688900D01*
X146291853Y-110688900D01*
X146340000Y-110698477D01*
X146388147Y-110688900D01*
X146388152Y-110688900D01*
X146530759Y-110660534D01*
X146692477Y-110552477D01*
X146719754Y-110511654D01*
X148103660Y-109127749D01*
X148466891Y-109200000D01*
X148713109Y-109200000D01*
X149077725Y-109127473D01*
X149491199Y-108851199D01*
X149767473Y-108437725D01*
X149860000Y-107972563D01*
X149952527Y-108437725D01*
X150228801Y-108851199D01*
X150642275Y-109127473D01*
X151006891Y-109200000D01*
X151253109Y-109200000D01*
X151617725Y-109127473D01*
X152031199Y-108851199D01*
X152307473Y-108437725D01*
X152400000Y-107972563D01*
X152492527Y-108437725D01*
X152768801Y-108851199D01*
X153182275Y-109127473D01*
X153546891Y-109200000D01*
X153793109Y-109200000D01*
X154157725Y-109127473D01*
X154571199Y-108851199D01*
X154847473Y-108437725D01*
X154940000Y-107972563D01*
X155032527Y-108437725D01*
X155308801Y-108851199D01*
X155722275Y-109127473D01*
X156086891Y-109200000D01*
X156333109Y-109200000D01*
X156697725Y-109127473D01*
X157111199Y-108851199D01*
X157387473Y-108437725D01*
X157480000Y-107972563D01*
X157572527Y-108437725D01*
X157848801Y-108851199D01*
X158262275Y-109127473D01*
X158626891Y-109200000D01*
X158873109Y-109200000D01*
X159237725Y-109127473D01*
X159651199Y-108851199D01*
X159927473Y-108437725D01*
X160020000Y-107972563D01*
X160112527Y-108437725D01*
X160388801Y-108851199D01*
X160802275Y-109127473D01*
X161166891Y-109200000D01*
X161413109Y-109200000D01*
X161777725Y-109127473D01*
X162191199Y-108851199D01*
X162467473Y-108437725D01*
X162560000Y-107972563D01*
X162652527Y-108437725D01*
X162928801Y-108851199D01*
X163342275Y-109127473D01*
X163706891Y-109200000D01*
X163953109Y-109200000D01*
X164317725Y-109127473D01*
X164731199Y-108851199D01*
X165007473Y-108437725D01*
X165100000Y-107972563D01*
X165192527Y-108437725D01*
X165468801Y-108851199D01*
X165882275Y-109127473D01*
X166246891Y-109200000D01*
X166493109Y-109200000D01*
X166857725Y-109127473D01*
X167271199Y-108851199D01*
X167547473Y-108437725D01*
X167640000Y-107972563D01*
X167732527Y-108437725D01*
X168008801Y-108851199D01*
X168422275Y-109127473D01*
X168786891Y-109200000D01*
X169033109Y-109200000D01*
X169397725Y-109127473D01*
X169811199Y-108851199D01*
X170087473Y-108437725D01*
X170180000Y-107972563D01*
X170272527Y-108437725D01*
X170548801Y-108851199D01*
X170962275Y-109127473D01*
X171326891Y-109200000D01*
X171573109Y-109200000D01*
X171937725Y-109127473D01*
X172351199Y-108851199D01*
X172627473Y-108437725D01*
X172724488Y-107950000D01*
X172627473Y-107462275D01*
X172351199Y-107048801D01*
X171937725Y-106772527D01*
X171573109Y-106700000D01*
X171326891Y-106700000D01*
X170963660Y-106772252D01*
X170713054Y-106521646D01*
X170713052Y-106521643D01*
X166179755Y-101988346D01*
X166152477Y-101947523D01*
X165990759Y-101839466D01*
X165848152Y-101811100D01*
X165848147Y-101811100D01*
X165800000Y-101801523D01*
X165751853Y-101811100D01*
X145702509Y-101811100D01*
X145479245Y-101587836D01*
X146900000Y-101587836D01*
X147056072Y-101556791D01*
X147188384Y-101468384D01*
X147276791Y-101336072D01*
X147307836Y-101180000D01*
X147307836Y-100330000D01*
X147315512Y-100330000D01*
X147412527Y-100817725D01*
X147688801Y-101231199D01*
X148102275Y-101507473D01*
X148466891Y-101580000D01*
X148713109Y-101580000D01*
X149077725Y-101507473D01*
X149491199Y-101231199D01*
X149767473Y-100817725D01*
X149860000Y-100352563D01*
X149952527Y-100817725D01*
X150228801Y-101231199D01*
X150642275Y-101507473D01*
X151006891Y-101580000D01*
X151253109Y-101580000D01*
X151617725Y-101507473D01*
X152031199Y-101231199D01*
X152307473Y-100817725D01*
X152400000Y-100352563D01*
X152492527Y-100817725D01*
X152768801Y-101231199D01*
X153182275Y-101507473D01*
X153546891Y-101580000D01*
X153793109Y-101580000D01*
X154157725Y-101507473D01*
X154571199Y-101231199D01*
X154847473Y-100817725D01*
X154940000Y-100352563D01*
X155032527Y-100817725D01*
X155308801Y-101231199D01*
X155722275Y-101507473D01*
X156086891Y-101580000D01*
X156333109Y-101580000D01*
X156697725Y-101507473D01*
X157111199Y-101231199D01*
X157387473Y-100817725D01*
X157480000Y-100352563D01*
X157572527Y-100817725D01*
X157848801Y-101231199D01*
X158262275Y-101507473D01*
X158626891Y-101580000D01*
X158873109Y-101580000D01*
X159237725Y-101507473D01*
X159651199Y-101231199D01*
X159927473Y-100817725D01*
X160020000Y-100352563D01*
X160112527Y-100817725D01*
X160388801Y-101231199D01*
X160802275Y-101507473D01*
X161166891Y-101580000D01*
X161413109Y-101580000D01*
X161777725Y-101507473D01*
X162191199Y-101231199D01*
X162467473Y-100817725D01*
X162560000Y-100352563D01*
X162652527Y-100817725D01*
X162928801Y-101231199D01*
X163342275Y-101507473D01*
X163706891Y-101580000D01*
X163953109Y-101580000D01*
X164317725Y-101507473D01*
X164731199Y-101231199D01*
X165007473Y-100817725D01*
X165100000Y-100352563D01*
X165192527Y-100817725D01*
X165468801Y-101231199D01*
X165882275Y-101507473D01*
X166246891Y-101580000D01*
X166493109Y-101580000D01*
X166857725Y-101507473D01*
X167271199Y-101231199D01*
X167547473Y-100817725D01*
X167640000Y-100352563D01*
X167732527Y-100817725D01*
X168008801Y-101231199D01*
X168422275Y-101507473D01*
X168786891Y-101580000D01*
X169033109Y-101580000D01*
X169397725Y-101507473D01*
X169811199Y-101231199D01*
X170087473Y-100817725D01*
X170144609Y-100530480D01*
X170216182Y-100530480D01*
X170386821Y-100987381D01*
X170719319Y-101344202D01*
X171163057Y-101546620D01*
X171249520Y-101563818D01*
X171445000Y-101479989D01*
X171445000Y-100335000D01*
X171455000Y-100335000D01*
X171455000Y-101479989D01*
X171650480Y-101563818D01*
X171736943Y-101546620D01*
X172180681Y-101344202D01*
X172513179Y-100987381D01*
X172683818Y-100530480D01*
X172599990Y-100335000D01*
X171455000Y-100335000D01*
X171445000Y-100335000D01*
X170300010Y-100335000D01*
X170216182Y-100530480D01*
X170144609Y-100530480D01*
X170184488Y-100330000D01*
X170144610Y-100129520D01*
X170216182Y-100129520D01*
X170300010Y-100325000D01*
X171445000Y-100325000D01*
X171445000Y-99180011D01*
X171455000Y-99180011D01*
X171455000Y-100325000D01*
X172599990Y-100325000D01*
X172683818Y-100129520D01*
X172513179Y-99672619D01*
X172180681Y-99315798D01*
X171736943Y-99113380D01*
X171650480Y-99096182D01*
X171455000Y-99180011D01*
X171445000Y-99180011D01*
X171249520Y-99096182D01*
X171163057Y-99113380D01*
X170719319Y-99315798D01*
X170386821Y-99672619D01*
X170216182Y-100129520D01*
X170144610Y-100129520D01*
X170087473Y-99842275D01*
X169811199Y-99428801D01*
X169397725Y-99152527D01*
X169033109Y-99080000D01*
X168786891Y-99080000D01*
X168422275Y-99152527D01*
X168008801Y-99428801D01*
X167732527Y-99842275D01*
X167640000Y-100307437D01*
X167547473Y-99842275D01*
X167271199Y-99428801D01*
X166857725Y-99152527D01*
X166493109Y-99080000D01*
X166246891Y-99080000D01*
X165882275Y-99152527D01*
X165468801Y-99428801D01*
X165192527Y-99842275D01*
X165100000Y-100307437D01*
X165007473Y-99842275D01*
X164731199Y-99428801D01*
X164317725Y-99152527D01*
X163953109Y-99080000D01*
X163706891Y-99080000D01*
X163342275Y-99152527D01*
X162928801Y-99428801D01*
X162652527Y-99842275D01*
X162560000Y-100307437D01*
X162467473Y-99842275D01*
X162191199Y-99428801D01*
X161777725Y-99152527D01*
X161413109Y-99080000D01*
X161166891Y-99080000D01*
X160802275Y-99152527D01*
X160388801Y-99428801D01*
X160112527Y-99842275D01*
X160020000Y-100307437D01*
X159927473Y-99842275D01*
X159651199Y-99428801D01*
X159237725Y-99152527D01*
X158873109Y-99080000D01*
X158626891Y-99080000D01*
X158262275Y-99152527D01*
X157848801Y-99428801D01*
X157572527Y-99842275D01*
X157480000Y-100307437D01*
X157387473Y-99842275D01*
X157111199Y-99428801D01*
X156697725Y-99152527D01*
X156333109Y-99080000D01*
X156086891Y-99080000D01*
X155722275Y-99152527D01*
X155308801Y-99428801D01*
X155032527Y-99842275D01*
X154940000Y-100307437D01*
X154847473Y-99842275D01*
X154571199Y-99428801D01*
X154157725Y-99152527D01*
X153793109Y-99080000D01*
X153546891Y-99080000D01*
X153182275Y-99152527D01*
X152768801Y-99428801D01*
X152492527Y-99842275D01*
X152400000Y-100307437D01*
X152307473Y-99842275D01*
X152031199Y-99428801D01*
X151617725Y-99152527D01*
X151253109Y-99080000D01*
X151006891Y-99080000D01*
X150642275Y-99152527D01*
X150228801Y-99428801D01*
X149952527Y-99842275D01*
X149860000Y-100307437D01*
X149767473Y-99842275D01*
X149491199Y-99428801D01*
X149077725Y-99152527D01*
X148713109Y-99080000D01*
X148466891Y-99080000D01*
X148102275Y-99152527D01*
X147688801Y-99428801D01*
X147412527Y-99842275D01*
X147315512Y-100330000D01*
X147307836Y-100330000D01*
X147307836Y-99480000D01*
X147276791Y-99323928D01*
X147188384Y-99191616D01*
X147056072Y-99103209D01*
X146900000Y-99072164D01*
X145200000Y-99072164D01*
X145043928Y-99103209D01*
X144911616Y-99191616D01*
X144823209Y-99323928D01*
X144792164Y-99480000D01*
X144792164Y-100900755D01*
X136345755Y-92454347D01*
X136318477Y-92413523D01*
X136156759Y-92305466D01*
X136014152Y-92277100D01*
X136014147Y-92277100D01*
X135966000Y-92267523D01*
X135917853Y-92277100D01*
X127501050Y-92277100D01*
X127396518Y-92172568D01*
X127139239Y-92066000D01*
X126860761Y-92066000D01*
X126603482Y-92172568D01*
X126406568Y-92369482D01*
X126300000Y-92626761D01*
X122332700Y-92626761D01*
X122332700Y-91852700D01*
X144367301Y-91852700D01*
X144367300Y-96479354D01*
G04 #@! TD*
M02*
